<?xml version="1.0" encoding="utf-8"?>
<!-- Generator: Adobe Illustrator 27.6.1, SVG Export Plug-In . SVG Version: 6.00 Build 0)  -->
<svg version="1.1" id="svg138" xmlns="http://www.w3.org/2000/svg" xmlns:xlink="http://www.w3.org/1999/xlink" x="0px" y="0px"
	 viewBox="0 0 99.2 90.9" style="enable-background:new 0 0 99.2 90.9;" xml:space="preserve">
<style type="text/css">
	.st0{fill-rule:evenodd;clip-rule:evenodd;fill:#828282;}
</style>
<path class="st0" d="M11.3,7.1c2.2-2.2,5.9-2.2,8.1,0l30.2,30.2L79.8,7.1c2.2-2.2,5.8-2.2,8.1,0c2.2,2.2,2.2,5.9,0,8.1L57.7,45.4
	l30.2,30.2c2.2,2.2,2.2,5.8,0,8.1c-2.2,2.2-5.9,2.2-8.1,0L49.6,53.5L19.4,83.8c-2.2,2.2-5.8,2.2-8.1,0c-2.2-2.2-2.2-5.9,0-8.1
	l30.2-30.2L11.3,15.2C9,13,9,9.4,11.3,7.1z"/>
</svg>
