<?xml version="1.0" encoding="utf-8"?>
<!-- Generator: Adobe Illustrator 27.6.1, SVG Export Plug-In . SVG Version: 6.00 Build 0)  -->
<svg version="1.1"
	 id="svg2" xmlns:svg="http://www.w3.org/2000/svg" xmlns:sodipodi="http://sodipodi.sourceforge.net/DTD/sodipodi-0.dtd" xmlns:inkscape="http://www.inkscape.org/namespaces/inkscape"
	 xmlns="http://www.w3.org/2000/svg" xmlns:xlink="http://www.w3.org/1999/xlink" x="0px" y="0px" viewBox="0 0 640 350"
	 style="enable-background:new 0 0 640 350;" xml:space="preserve">
<style type="text/css">
	.st0{fill:#FFFFFF;}
</style>
<sodipodi:namedview  bordercolor="#000000" borderopacity="0.25" id="namedview4" inkscape:current-layer="g10" inkscape:cx="513.60671" inkscape:cy="368.61459" inkscape:deskcolor="#d1d1d1" inkscape:pagecheckerboard="0" inkscape:pageopacity="0.0" inkscape:showpageshadow="2" inkscape:window-height="813" inkscape:window-maximized="0" inkscape:window-width="1440" inkscape:window-x="71" inkscape:window-y="40" inkscape:zoom="0.89660043" pagecolor="#ffffff" showborder="false" showgrid="false" showguides="false">
	<inkscape:page  height="350" id="page8" width="640" x="0" y="0"></inkscape:page>
</sodipodi:namedview>
<g>
	<path class="st0" d="M278.4,257.1c0.1,0.5,0.2,0.9,0.5,1.4c0.4,0.9,0.8,1.9,1.2,2.7"/>
	<path class="st0" d="M336.7,294h0.6H336.7z"/>
	<path class="st0" d="M339,294c-0.2,0-0.5,0-0.7,0h0.3H339z"/>
	<path class="st0" d="M338.6,294h-0.3c0.2,0,0.5,0,0.7,0H338.6z"/>
	<path class="st0" d="M402.9,271.4c-6.8-22.4-6.8-46.4,0-68.8c2.1-7.7,5.2-15.1,9-22c0.5-0.9,0.9-1.8,1.4-2.7
		c-18.7-26.5-49.2-42.2-81.6-42.2c-4.9,0-9.7,0.4-14.5,1.1c-14.8,2.2-29,7.7-41.4,16.2c-1.2,0.7-2.3,1.5-3.4,2.3
		c-23.6,17.4-38.6,44.2-41,73.5c-0.3,2.7-0.4,5.4-0.4,8.1l0,0c-0.1,52.8,40.4,96.7,93,101c0.8,0.1,1.7,0.2,2.5,0.2
		c1.7,0,3.5,0,5.2,0c32.5,0,62.9-15.8,81.7-42.3C409,288,405.5,279.9,402.9,271.4z M331.6,295.9c-32.5,0.2-59-26-59.2-58.5
		s26-59,58.5-59.2c32.5-0.2,59,26,59.2,58.5c0,0.1,0,0.2,0,0.3C390.2,269.5,364,295.8,331.6,295.9
		C331.6,295.9,331.6,295.9,331.6,295.9z"/>
	<ellipse class="st0" cx="54.2" cy="168.7" rx="36.6" ry="36.8"/>
	<path class="st0" d="M202.3,131.9v68.6c-58.3,18.7-100.2,69.7-100.2,129.6c0,1,0,2,0,3H31.8C32.7,233.9,105.6,151.5,202.3,131.9z"
		/>
	<path class="st0" d="M619.7,221.4c0.2,2.3-0.5,4.5-2.1,6.2c-1.5,1.6-3.6,2.6-5.8,2.7c-8.3,0.2-16.5,0.3-24.8,0.4
		c-3.8,0.1-7.1-2.4-8-6.1c-6.6-31.4-36.1-52.5-66-48.2c-22.6,3.2-51.9,31.1-49.4,64.1c0.2,2.4,2.9,32.4,27.9,44.6
		c9.9,4.6,21,5.9,31.6,3.5c3-1.5,6.6-1.3,9.5,0.6c0.8,0.8,1.5,1.7,2,2.7c0.4,1,0.7,2.1,0.7,3.2v30.7c-0.1,4-3.1,7.4-7,7.9
		c-8.6,1-17.4,0.8-26-0.7c-5-0.8-9.9-2.1-14.6-3.7c-2.2-0.7-4.3-1.6-6.4-2.5c-1-0.4-2-0.8-3-1.3c-1.5-0.6-3-1.3-4.4-2.1
		c-0.6-0.2-1.1-0.4-1.5-0.8c-1.2-0.6-2.4-1.3-3.6-2.1c-1.5-0.8-2.9-1.7-4.3-2.7c-4.2-2.9-8.2-6-11.9-9.4c-2.6-2.5-5.1-5.2-7.3-8.1
		c-1.2-1.4-2.4-2.7-3.5-4.3c0,0,0,0.2-0.2,0.3c-1.9-2.3-3.6-4.6-5.2-7.1c-3.1-4.6-5.8-9.5-8-14.6c-1.4-3-2.6-6.1-3.6-9.3
		c-2.2-6.1-3.7-12.5-4.5-18.9c-1.9-14.9-0.5-30.1,4.2-44.5c1.1-3.4,2.4-6.8,3.9-10.1c1.7-3.8,3.7-7.6,5.9-11.2
		c2-3.3,4.2-6.5,6.6-9.6l0,0c0.3-0.5,0.6-1,1-1.4c0.6-1,1.3-1.9,2.1-2.7c18.3-22.7,45.9-35.9,75-35.9c11.5,0.1,22.8,2.2,33.5,6.5
		c1.7,0.5,3.3,1.2,4.9,1.9c23.3,9.3,42.3,26.9,53.2,49.4C615.6,198.9,618.7,210,619.7,221.4z"/>
	<path class="st0" d="M272.5,18.9v109.3c0,2.4-1.3,4.6-3.3,5.9c-10.9,6.8-20.7,15.1-29.1,24.8c-2.5,2.8-6.9,3.1-9.7,0.6
		c-1.5-1.3-2.3-3.2-2.3-5.2l-0.9-70.8c0.2-7.2,0-9.8-6.9-6.9c-2.5,1.3-6,3.1-10.1,5.2c-6.2,3.1-8.1,4-10.8,3.6
		c-2.6-0.2-5-1.8-6.3-4.1c-0.9-2.5-0.5-5.3,1.1-7.5l41-61.5l0.4-0.4h29.9C269.4,12,272.5,15.1,272.5,18.9z"/>
	<path class="st0" d="M622.4,255.4v74.8c0,3.9-3.2,7.1-7.1,7.1c0,0,0,0,0,0h-30.7c-3.9,0-7.1-3.2-7.1-7.1c0,0,0,0,0,0v-15.1
		c-5.7,4.2-11.8,7.9-18.1,11c-3.7,1.9-8.3,0.4-10.2-3.3c-0.5-1.1-0.8-2.2-0.8-3.4v-32.9c0.1-2.5,1.4-4.9,3.4-6.3
		c10.8-7.8,18.9-21.9,22.9-29.7c1.8-3.5,5.5-5.8,9.4-5.8h27.4C617.6,244.7,622.4,249.5,622.4,255.4z"/>
</g>
</svg>
