<?xml version="1.0" encoding="utf-8"?>
<!-- Generator: Adobe Illustrator 27.6.1, SVG Export Plug-In . SVG Version: 6.00 Build 0)  -->
<svg version="1.1"
	 id="svg2" xmlns:inkscape="http://www.inkscape.org/namespaces/inkscape" xmlns:sodipodi="http://sodipodi.sourceforge.net/DTD/sodipodi-0.dtd" xmlns:svg="http://www.w3.org/2000/svg" inkscape:version="1.2 (dc2aeda, 2022-05-15)" sodipodi:docname="RBA Logo Black.svg"
	 xmlns="http://www.w3.org/2000/svg" xmlns:xlink="http://www.w3.org/1999/xlink" x="0px" y="0px" viewBox="0 0 564 564"
	 style="enable-background:new 0 0 564 564;" xml:space="preserve">
<style type="text/css">
	
		.st0{fill-rule:evenodd;clip-rule:evenodd;stroke:#000000;stroke-width:19.5213;stroke-linecap:round;stroke-linejoin:round;stroke-miterlimit:7.7;stroke-opacity:0;}
	
		.st1{fill-rule:evenodd;clip-rule:evenodd;fill:#FFFFFF;stroke:#000000;stroke-width:10.1368;stroke-linecap:round;stroke-linejoin:round;stroke-miterlimit:3.9984;stroke-opacity:0;}
</style>
<sodipodi:namedview  bordercolor="#000000" borderopacity="0.25" id="namedview4" inkscape:current-layer="g10" inkscape:cx="202.68619" inkscape:cy="275.35799" inkscape:deskcolor="#d1d1d1" inkscape:pagecheckerboard="0" inkscape:pageopacity="0.0" inkscape:showpageshadow="2" inkscape:window-height="809" inkscape:window-maximized="0" inkscape:window-width="1440" inkscape:window-x="0" inkscape:window-y="25" inkscape:zoom="0.88067174" pagecolor="#ffffff" showborder="false" showgrid="false" showguides="true">
	
		<inkscape:page  height="500" id="page8" inkscape:export-filename="RBA round.png" inkscape:export-xdpi="96" inkscape:export-ydpi="96" width="500" x="0" y="0">
		</inkscape:page>
</sodipodi:namedview>
<g>
	<path id="rect480" class="st0" d="M281.4,9.1h1.2c150.6,0,272.7,122.2,272.7,272.8l0,0c0,150.6-122.1,272.8-272.8,272.8h-1.2
		C130.7,554.8,8.6,432.6,8.6,282l0,0C8.6,131.4,130.7,9.1,281.4,9.1z"/>
	
		<g id="g10" transform="matrix(1.0021567,0,0,-1.0021567,11.998501,603.43154)" inkscape:groupmode="layer" inkscape:label="Page 1">
		<g id="g156" transform="matrix(0.71905347,0,0,-0.71905347,6.3958514,499.46883)">
			<path id="path136" class="st1" d="M318.3,307c0.1,0.6,0.2,1,0.6,1.5c0.4,1,0.9,2.1,1.3,3"/>
			<path id="path138" class="st1" d="M382.7,347.7h0.7H382.7z"/>
			<path id="path140" class="st1" d="M385.2,347.7c-0.2,0-0.6,0-0.8,0h0.3H385.2z"/>
			<path id="path142" class="st1" d="M384.8,347.7h-0.3c0.2,0,0.6,0,0.8,0H384.8z"/>
			<path id="path144" class="st1" d="M455.8,322.8c-7.5-24.7-7.5-51.2,0-76c2.3-8.5,5.7-16.7,9.9-24.3c0.6-1,1-2,1.5-3
				c-20.6-29.3-54.3-46.6-90.1-46.6c-5.4,0-10.7,0.4-16,1.2c-16.3,2.4-32,8.5-45.7,17.9c-1.3,0.8-2.5,1.7-3.8,2.5
				c-26.1,19.2-42.6,48.8-45.3,81.2c-0.3,3-0.4,6-0.4,8.9l0,0c-0.1,58.3,44.6,106.8,102.7,111.5c0.9,0.1,1.9,0.2,2.8,0.2
				c1.9,0,3.9,0,5.7,0c35.9,0,69.5-17.4,90.2-46.7C462.5,341.1,458.6,332.2,455.8,322.8L455.8,322.8z M377,349.8
				c-35.9,0.2-65.1-28.7-65.4-64.6c-0.2-35.9,28.7-65.1,64.6-65.4c35.9-0.2,65.1,28.7,65.4,64.6c0,0.1,0,0.2,0,0.3
				C441.7,320.7,412.8,349.7,377,349.8L377,349.8z"/>
			<ellipse id="ellipse146" class="st1" cx="70.7" cy="209.4" rx="40.4" ry="40.6"/>
			<path id="path148" class="st1" d="M234.3,168.7v75.7c-64.4,20.6-110.6,77-110.6,143.1c0,1.1,0,2.2,0,3.3H46
				C47,281.4,127.5,190.4,234.3,168.7L234.3,168.7z"/>
			<path id="path150" class="st1" d="M695.1,267.6c0.2,2.5-0.6,5-2.3,6.8c-1.7,1.8-4,2.9-6.4,3c-9.2,0.2-18.2,0.3-27.4,0.4
				c-4.2,0.1-7.8-2.6-8.8-6.7c-7.3-34.7-39.9-58-72.9-53.2c-25,3.5-57.3,34.3-54.5,70.8c0.2,2.6,3.2,35.8,30.8,49.2
				c10.9,5.1,23.2,6.5,34.9,3.9c3.3-1.7,7.3-1.4,10.5,0.7c0.9,0.9,1.7,1.9,2.2,3c0.4,1.1,0.8,2.3,0.8,3.5v33.9
				c-0.1,4.4-3.4,8.2-7.7,8.7c-9.5,1.1-19.2,0.9-28.7-0.8c-5.5-0.9-10.9-2.3-16.1-4.1c-2.4-0.8-4.7-1.8-7.1-2.8
				c-1.1-0.4-2.2-0.9-3.3-1.4c-1.7-0.7-3.3-1.4-4.9-2.3c-0.7-0.2-1.2-0.4-1.7-0.9c-1.3-0.7-2.6-1.4-4-2.3c-1.7-0.9-3.2-1.9-4.7-3
				c-4.6-3.2-9.1-6.6-13.1-10.4c-2.9-2.8-5.6-5.7-8.1-8.9c-1.3-1.5-2.6-3-3.9-4.7c0,0,0,0.2-0.2,0.3c-2.1-2.5-4-5.1-5.7-7.8
				c-3.4-5.1-6.4-10.5-8.8-16.1c-1.5-3.3-2.9-6.7-4-10.3c-2.4-6.7-4.1-13.8-5-20.9c-2.1-16.5-0.6-33.2,4.6-49.1
				c1.2-3.8,2.6-7.5,4.3-11.2c1.9-4.2,4.1-8.4,6.5-12.4c2.2-3.6,4.6-7.2,7.3-10.6l0,0c0.3-0.6,0.7-1.1,1.1-1.5
				c0.7-1.1,1.4-2.1,2.3-3c20.2-25.1,50.7-39.6,82.8-39.6c12.7,0.1,25.2,2.4,37,7.2c1.9,0.6,3.6,1.3,5.4,2.1
				c25.7,10.3,46.7,29.7,58.7,54.5C690.6,242.7,694,255,695.1,267.6L695.1,267.6z"/>
			<path id="path152" class="st1" d="M311.8,44v120.7c0,2.6-1.4,5.1-3.6,6.5c-12,7.5-22.9,16.7-32.1,27.4c-2.8,3.1-7.6,3.4-10.7,0.7
				c-1.7-1.4-2.5-3.5-2.5-5.7l-1-78.2c0.2-7.9,0-10.8-7.6-7.6c-2.8,1.4-6.6,3.4-11.2,5.7c-6.8,3.4-8.9,4.4-11.9,4
				c-2.9-0.2-5.5-2-7-4.5c-1-2.8-0.6-5.9,1.2-8.3l45.3-67.9l0.4-0.4h33C308.4,36.4,311.8,39.8,311.8,44z"/>
			<path id="path154" class="st1" d="M698.1,305.1v82.6c0,4.3-3.5,7.8-7.8,7.8l0,0h-33.9c-4.3,0-7.8-3.5-7.8-7.8l0,0V371
				c-6.3,4.6-13,8.7-20,12.1c-4.1,2.1-9.2,0.4-11.3-3.6c-0.6-1.2-0.9-2.4-0.9-3.8v-36.3c0.1-2.8,1.5-5.4,3.8-7
				c11.9-8.6,20.9-24.2,25.3-32.8c2-3.9,6.1-6.4,10.4-6.4h30.3C692.8,293.3,698.1,298.6,698.1,305.1L698.1,305.1z"/>
		</g>
	</g>
</g>
</svg>
