<?xml version="1.0" encoding="UTF-8" standalone="no"?>
<svg
   width="844.6701"
   height="630.24829"
   viewBox="0 0 844.6701 630.24829"
   version="1.1"
   id="svg218"
   sodipodi:docname="rba+image.svg"
   xml:space="preserve"
   inkscape:version="1.2 (dc2aeda, 2022-05-15)"
   xmlns:inkscape="http://www.inkscape.org/namespaces/inkscape"
   xmlns:sodipodi="http://sodipodi.sourceforge.net/DTD/sodipodi-0.dtd"
   xmlns:xlink="http://www.w3.org/1999/xlink"
   xmlns="http://www.w3.org/2000/svg"
   xmlns:svg="http://www.w3.org/2000/svg"><defs
     id="defs222"><linearGradient
       inkscape:collect="always"
       xlink:href="#linearGradient1899"
       id="linearGradient2222"
       gradientUnits="userSpaceOnUse"
       x1="12.9"
       y1="165.05"
       x2="639.70001"
       y2="165.05" /><linearGradient
       inkscape:collect="always"
       id="linearGradient1899"><stop
         style="stop-color:#ff000b;stop-opacity:1;"
         offset="0"
         id="stop1895" /><stop
         style="stop-color:#9d0000;stop-opacity:1;"
         offset="1"
         id="stop1897" /></linearGradient><linearGradient
       inkscape:collect="always"
       xlink:href="#linearGradient4981"
       id="linearGradient4969"
       gradientUnits="userSpaceOnUse"
       x1="12.9"
       y1="165.05"
       x2="614.09656"
       y2="191.59187"
       gradientTransform="matrix(0.76009733,0,0,0.77395837,92.956219,-11.792028)" /><linearGradient
       inkscape:collect="always"
       id="linearGradient4981"><stop
         style="stop-color:#808080;stop-opacity:1;"
         offset="0"
         id="stop4977" /><stop
         style="stop-color:#fffcfc;stop-opacity:1;"
         offset="1"
         id="stop4979" /></linearGradient><linearGradient
       inkscape:collect="always"
       xlink:href="#linearGradient1360"
       id="linearGradient1362"
       x1="17.600002"
       y1="175"
       x2="622.40002"
       y2="175"
       gradientUnits="userSpaceOnUse" /><linearGradient
       inkscape:collect="always"
       id="linearGradient1360"><stop
         style="stop-color:#ff2424;stop-opacity:1;"
         offset="0"
         id="stop1356" /><stop
         style="stop-color:#c30005;stop-opacity:1;"
         offset="1"
         id="stop1358" /></linearGradient><linearGradient
       inkscape:collect="always"
       xlink:href="#linearGradient1360"
       id="linearGradient1046"
       gradientUnits="userSpaceOnUse"
       x1="17.600002"
       y1="175"
       x2="622.40002"
       y2="175" /><linearGradient
       inkscape:collect="always"
       xlink:href="#linearGradient1360"
       id="linearGradient1048"
       gradientUnits="userSpaceOnUse"
       x1="17.600002"
       y1="175"
       x2="622.40002"
       y2="175" /><linearGradient
       inkscape:collect="always"
       xlink:href="#linearGradient1360"
       id="linearGradient1050"
       gradientUnits="userSpaceOnUse"
       x1="17.600002"
       y1="175"
       x2="622.40002"
       y2="175" /><linearGradient
       inkscape:collect="always"
       xlink:href="#linearGradient1360"
       id="linearGradient1052"
       gradientUnits="userSpaceOnUse"
       x1="17.600002"
       y1="175"
       x2="622.40002"
       y2="175" /><linearGradient
       inkscape:collect="always"
       xlink:href="#linearGradient1360"
       id="linearGradient1054"
       gradientUnits="userSpaceOnUse"
       x1="17.600002"
       y1="175"
       x2="622.40002"
       y2="175" /><linearGradient
       inkscape:collect="always"
       xlink:href="#linearGradient1360"
       id="linearGradient1056"
       gradientUnits="userSpaceOnUse"
       x1="17.600002"
       y1="175"
       x2="622.40002"
       y2="175" /><linearGradient
       inkscape:collect="always"
       xlink:href="#linearGradient1360"
       id="linearGradient1058"
       gradientUnits="userSpaceOnUse"
       x1="17.600002"
       y1="175"
       x2="622.40002"
       y2="175" /><linearGradient
       inkscape:collect="always"
       xlink:href="#linearGradient1360"
       id="linearGradient1060"
       gradientUnits="userSpaceOnUse"
       x1="17.600002"
       y1="175"
       x2="622.40002"
       y2="175" /><linearGradient
       inkscape:collect="always"
       xlink:href="#linearGradient1360"
       id="linearGradient1062"
       gradientUnits="userSpaceOnUse"
       x1="17.600002"
       y1="175"
       x2="622.40002"
       y2="175" /><linearGradient
       inkscape:collect="always"
       xlink:href="#linearGradient1360"
       id="linearGradient1064"
       gradientUnits="userSpaceOnUse"
       x1="17.600002"
       y1="175"
       x2="622.40002"
       y2="175" /></defs><sodipodi:namedview
     id="namedview220"
     pagecolor="#ffffff"
     bordercolor="#000000"
     borderopacity="0.25"
     inkscape:showpageshadow="2"
     inkscape:pageopacity="0.0"
     inkscape:pagecheckerboard="0"
     inkscape:deskcolor="#d1d1d1"
     showgrid="false"
     inkscape:zoom="0.79469094"
     inkscape:cx="134.64354"
     inkscape:cy="224.61562"
     inkscape:window-width="1309"
     inkscape:window-height="655"
     inkscape:window-x="0"
     inkscape:window-y="25"
     inkscape:window-maximized="0"
     inkscape:current-layer="svg218" /><rect
     style="fill:#999999;stroke:#d50000;stroke-width:0;stroke-linecap:round;stroke-linejoin:round;stroke-miterlimit:7.7;stroke-opacity:0.047619"
     id="rect598"
     width="348.07849"
     height="234.80385"
     x="316.54364"
     y="5.6094928"
     ry="14.929726"
     transform="rotate(4.356676)" /><path
     d="M 655.30244,83.183185 432.80432,66.232125 c -0.48776,-0.0491 -0.84133,-0.52251 -0.78972,-1.05747 0.0499,-0.51833 0.46318,-0.907381 0.93753,-0.882772 l 222.49813,16.951072 c 0.48779,0.0491 0.84136,0.52251 0.78974,1.05746 -0.05,0.51833 -0.46321,0.90739 -0.93756,0.88277 z"
     fill="#e6e6e6"
     id="path132"
     style="stroke-width:0.999998" /><path
     d="m 464.39327,168.90932 89.76703,6.83891 c 0.22818,0.0174 0.39771,0.23429 0.37865,0.48447 l -4.35998,57.22872 c -0.019,0.2502 -0.2195,0.43891 -0.44768,0.42153 l -89.76703,-6.83893 z"
     fill="#e6e6e6"
     id="path134"
     style="stroke-width:0.999998" /><path
     d="m 549.60225,234.18421 -85.36066,-64.84492 0.30337,-0.85997 85.36069,64.84497 c 0.21568,0.0884 0.32257,0.35264 0.23881,0.5901 v 0 c -0.0837,0.23748 -0.32651,0.35829 -0.54218,0.26983 z"
     fill="#ffffff"
     id="path136"
     style="stroke-width:0.999998" /><path
     d="m 460.04904,227.49199 -0.1696,-0.89597 94.19895,-51.16514 c 0.22658,-0.0548 0.44823,0.10141 0.49507,0.34882 v 1e-5 0 c 0.0467,0.24743 -0.0988,0.49237 -0.32544,0.54714 z"
     fill="#ffffff"
     id="path138"
     style="stroke-width:0.999998" /><rect
     x="484.46008"
     y="75.728058"
     width="73.185303"
     height="4.2985439"
     rx="1.9602729"
     ry="2.1492698"
     fill="#e6e6e6"
     id="rect140"
     style="stroke-width:0.999998"
     transform="rotate(4.356676)" /><rect
     x="475.14877"
     y="89.145493"
     width="91.807899"
     height="4.2985439"
     rx="1.9602729"
     ry="2.1492698"
     fill="#e6e6e6"
     id="rect142"
     style="stroke-width:0.999998"
     transform="rotate(4.356676)" /><rect
     x="475.14877"
     y="102.56291"
     width="91.807899"
     height="4.2985439"
     rx="1.9602729"
     ry="2.1492698"
     fill="#ffffff"
     id="rect144"
     style="stroke-width:0.999998"
     transform="rotate(4.356676)" /><path
     d="m 635.23217,196.68131 c -1.26643,16.54407 -11.92585,30.5532 -26.58325,34.94001 -0.31149,0.0959 -0.62218,0.181 -0.93585,0.26225 -19.17671,5.12385 -38.29831,-7.69252 -42.70926,-28.62619 -4.41095,-20.93367 7.55904,-42.05748 26.73576,-47.18132 19.17673,-5.12385 38.29831,7.69254 42.70929,28.6262 0.82516,3.91609 1.0894,7.95705 0.78331,11.97905 z"
     fill="#e6e6e6"
     id="path146"
     style="stroke-width:0.999998" /><path
     d="m 555.16476,150.3312 c -0.28036,1.79351 0.81679,3.4761 2.45058,3.75813 0.1742,0.0301 0.35072,0.0433 0.52745,0.0394 l 3.56294,10.95556 3.34211,-4.89357 -3.89582,-9.65339 c -0.1212,-1.81854 -1.56699,-3.16455 -3.22924,-3.00638 -1.39084,0.13232 -2.53106,1.29006 -2.75804,2.8004 z"
     fill="#ffb6b6"
     id="path148"
     style="stroke-width:0.999998" /><path
     d="m 595.20434,193.61726 c -0.0396,-0.31878 -0.0974,-0.63432 -0.17268,-0.94479 -0.47793,-2.00015 -1.63074,-3.71815 -3.22753,-4.80992 -0.0375,-0.0282 -0.0783,-0.0567 -0.11615,-0.0814 l -19.1268,-12.63341 -1.48328,-3.92298 -5.99458,-15.83809 -1.79904,0.43936 -4.25151,1.03552 -0.0976,0.0215 4.94385,25.89743 1.47683,1.44656 16.7311,16.34786 0.5445,0.53451 c 2.77979,2.71117 6.9806,2.75996 9.88051,0.11475 0.28899,-0.26097 0.5594,-0.5458 0.80882,-0.85192 1.51137,-1.84604 2.20189,-4.32255 1.88348,-6.75513 z"
     fill="#ffffff"
     id="path150"
     style="stroke-width:0.999998" /><path
     d="m 604.1856,222.33087 0.21332,-4.18887 0.62127,-12.14756 c 1.68584,-7.67643 2.52726,-8.47871 -2.34786,-14.18632 -0.40059,-0.12696 -0.73134,-0.43383 -0.91097,-0.84516 -0.39811,-1.11064 0.89465,-2.84646 0.11252,-5.72999 l -7.89744,-0.10502 -2.17231,2.73459 -8.74073,11.00695 c -0.35154,0.55033 -0.67744,1.11958 -0.97637,1.70554 -3.973,7.75233 0.26214,12.35625 0.56145,13.11494 l 1.60364,7.68055 0.64465,7.37909 0.31075,1.04231 1.06115,0.52313 c 6.80106,2.92309 14.28795,3.47073 21.44445,1.56856 -0.92938,-3.29004 -2.10932,-6.48539 -3.52753,-9.55267 z"
     fill="#ffffff"
     id="path152"
     style="stroke-width:0.999998" /><path
     d="m 617.1633,252.96468 c 0.79843,-1.60313 0.26874,-3.59348 -1.18468,-4.44572 -0.15488,-0.0909 -0.317,-0.16646 -0.48445,-0.22589 l -0.0852,-11.67934 -4.6027,3.45247 0.78657,10.56158 c -0.42816,1.77051 0.53047,3.56594 2.14119,4.01023 1.34775,0.37173 2.76546,-0.32004 3.42926,-1.67333 z"
     fill="#ffb6b6"
     id="path154"
     style="stroke-width:0.999998" /><path
     d="m 606.46615,194.91388 c -0.99585,-1.97771 -2.6978,-3.40694 -4.70481,-3.9509 -0.42946,-0.11973 -0.8684,-0.19688 -1.31158,-0.23045 -1.47696,-0.1123 -2.95749,0.25533 -4.25639,1.05689 -0.41194,0.25276 -0.80101,0.5485 -1.16165,0.88305 -3.22907,2.94472 -3.70351,8.16581 -1.05969,11.66167 l 10e-4,0.003 10.42461,13.80474 3.79924,5.0311 0.45075,8.44821 0.69266,12.99809 1.82111,0.22579 4.31011,0.53863 0.0983,0.0116 2.09394,-17.98054 0.9759,-8.38304 -12.17491,-24.11744 z"
     fill="#ffffff"
     id="path156"
     style="stroke-width:0.999998" /><path
     d="m 593.08788,164.66509 c -3.23631,5.7934 -1.95099,12.88755 2.92684,16.93824 5.2747,4.38021 12.58037,4.0657 15.50767,-3.44246 3.25984,-8.3611 1.39727,-12.19639 -2.92686,-16.93825 -5.06742,-5.55693 -12.01089,-2.81716 -15.50765,3.44247 z"
     fill="#2f2e41"
     id="path158"
     style="stroke-width:0.999998" /><path
     d="m 605.74761,179.08468 c -3.26992,4.01113 -8.85284,4.40466 -12.46986,0.87898 -3.61232,-3.52111 -3.89837,-9.62092 -0.63932,-13.6333 l 0.0848,-0.10412 c 3.35006,-3.9312 8.93789,-4.18785 12.48082,-0.57323 3.46229,3.53235 3.70199,9.47594 0.54159,13.42969 z"
     fill="#ffb6b6"
     id="path160"
     style="stroke-width:0.999998" /><path
     d="m 590.46902,163.48764 c 1.31619,1.60064 2.97657,2.81617 4.83444,3.53927 0.41811,-0.45451 0.90135,-0.83075 1.42997,-1.11329 -0.28329,0.53214 -0.49339,1.10631 -0.62344,1.70373 0.70123,1.99478 4.06006,3.64599 7.2632,5.31732 l 5.03231,-8.15227 -5.53036,-4.04873 c -4.39519,-3.89118 -10.00141,-2.80044 -12.40613,2.75396 z"
     fill="#2f2e41"
     id="path162"
     style="stroke-width:0.999998" /><path
     d="m 611.9837,161.49146 c 0.88673,-0.28202 1.83726,-0.0546 2.52501,0.60401 0.66188,0.64291 1.17521,1.44847 1.49909,2.35237 0.60227,1.46848 0.99627,3.03173 1.16851,4.63627 0.14611,1.38788 -0.0224,3.03956 -1.19692,3.66854 -0.98008,0.52484 -2.2879,0.0477 -3.08635,-0.81318 -0.73256,-0.89524 -1.25802,-1.97127 -1.53309,-3.13946 -0.33594,-1.12354 -0.64619,-2.28559 -1.32202,-3.24891 l 0.74373,0.45509 c -0.18259,-0.83291 -0.23145,-1.69622 -0.14446,-2.55155 0.10197,-0.86498 0.61461,-1.61216 1.3465,-1.96318 z"
     fill="#2f2e41"
     id="path164"
     style="stroke-width:0.999998" /><path
     d="m 601.85843,161.83877 5.93318,4.34363 c 3.3409,2.44586 4.2009,7.4229 1.92087,11.11652 v 0 c -3.30493,5.35287 -9.74967,7.132 -14.88202,4.10835 l 6.11066,-5.07469 -8.0488,3.72461 -1.57032,-1.14962 c 8.40554,-1.0198 10.54525,-8.01911 10.53642,-17.0688 z"
     fill="#2f2e41"
     id="path166"
     style="stroke-width:0.999998" /><path
     d="m 613.10534,169.53545 c 0.94622,1.41778 2.54768,2.06288 3.97505,2.87191 5.11003,2.95552 8.52304,8.50407 9.12026,14.82679 0.21854,2.53509 -0.0324,5.12297 0.42805,7.61322 0.45667,2.48996 1.86556,5.00607 4.11701,5.60367 1.52338,0.40714 3.12247,-0.12912 4.62532,-0.6643 0.82633,-0.29136 1.65277,-0.58417 2.47933,-0.87837 -0.65914,-2.35776 -1.317,-4.71538 -1.97358,-7.0729 1.1712,2.26691 2.57325,4.37886 4.1797,6.29605 2.96169,-1.04835 5.92589,-2.09652 8.89269,-3.14449 -7.06382,-0.50858 -5.28623,-7.93273 -6.29158,-15.59417 -0.55266,-4.20998 -7.73325,-7.57921 -8.88271,-11.63217 -1.79352,-6.35354 -7.9709,-9.83961 -13.79756,-7.78635 -2.5108,0.88478 -4.66364,2.71699 -6.07166,5.16736 -1.4981,0.52286 -1.72868,2.99423 -0.80032,4.39375 z"
     fill="#2f2e41"
     id="path168"
     style="stroke-width:0.999998" /><g
     id="g216"
     transform="matrix(0.41319542,0.03147938,-0.03451443,0.45303304,309.79207,39.019101)"
     style="stroke-width:2.30462"><ellipse
       cx="360.75839"
       cy="8.6450701"
       rx="8.4566097"
       ry="8.6450701"
       fill="#3f3d56"
       id="ellipse198"
       style="stroke-width:4.03624" /><ellipse
       cx="389.97214"
       cy="8.6450701"
       rx="8.4566097"
       ry="8.6450701"
       fill="#3f3d56"
       id="ellipse200"
       style="stroke-width:4.03624" /><ellipse
       cx="419.18588"
       cy="8.6450701"
       rx="8.4566097"
       ry="8.6450701"
       fill="#3f3d56"
       id="ellipse202"
       style="stroke-width:4.03624" /><path
       d="m 452.4973,15.47786 c -0.25977,0 -0.51904,-0.10059 -0.71484,-0.30078 l -5.70605,-5.83301 c -0.38037,-0.38867 -0.38037,-1.00977 0,-1.39844 l 5.70605,-5.83252 c 0.38721,-0.39453 1.021,-0.40088 1.41406,-0.01562 0.39502,0.38623 0.40186,1.01953 0.0156,1.41406 l -5.02197,5.1333 5.02197,5.13379 c 0.38623,0.39453 0.37939,1.02783 -0.0156,1.41406 -0.19434,0.19043 -0.44678,0.28516 -0.69922,0.28516 z"
       fill="#3f3d56"
       id="path204"
       style="stroke-width:4.03624" /><path
       d="m 462.08568,15.47786 c -0.25244,0 -0.50488,-0.09473 -0.69922,-0.28516 -0.39502,-0.38623 -0.40186,-1.01904 -0.0156,-1.41406 l 5.02148,-5.13379 -5.02148,-5.1333 c -0.38623,-0.39453 -0.37939,-1.02783 0.0156,-1.41406 0.39404,-0.38672 1.02783,-0.37939 1.41406,0.01562 l 5.70557,5.83252 c 0.38037,0.38867 0.38037,1.00977 0,1.39844 l -5.70557,5.83301 c -0.1958,0.2002 -0.45508,0.30078 -0.71484,0.30078 z"
       fill="#3f3d56"
       id="path206"
       style="stroke-width:4.03624" /><path
       d="m 760.59551,1.0009 h -10.60999 c -1.21002,0 -2.19,0.97998 -2.19,2.19 v 10.62 c 0,1.21002 0.97998,2.19 2.19,2.19 h 10.60999 c 1.21002,0 2.20001,-0.97998 2.20001,-2.19 v -10.62 c 0,-1.21002 -0.98999,-2.19 -2.20001,-2.19 z"
       fill="#3f3d56"
       id="path208"
       style="stroke-width:4.03624" /><path
       d="m 734.59551,1.0009 h -10.60999 c -1.21002,0 -2.19,0.97998 -2.19,2.19 v 10.62 c 0,1.21002 0.97998,2.19 2.19,2.19 h 10.60999 c 1.21002,0 2.20001,-0.97998 2.20001,-2.19 v -10.62 c 0,-1.21002 -0.98999,-2.19 -2.20001,-2.19 z"
       fill="#3f3d56"
       id="path210"
       style="stroke-width:4.03624" /><path
       d="m 785.09551,1.5009 h -10.60999 c -1.21002,0 -2.19,0.97998 -2.19,2.19 v 10.62 c 0,1.21002 0.97998,2.19 2.19,2.19 h 10.60999 c 1.21002,0 2.20001,-0.97998 2.20001,-2.19 v -10.62 c 0,-1.21002 -0.98999,-2.19 -2.20001,-2.19 z"
       fill="#3f3d56"
       id="path212"
       style="stroke-width:4.03624" /><path
       d="m 625.17381,5.54088 h -84.81 c -1.48004,0 -2.67004,1.20001 -2.67004,2.67004 0,1.47003 1.19,2.66998 2.67004,2.66998 h 84.81 c 1.46997,0 2.66998,-1.20001 2.66998,-2.66998 0,-1.46997 -1.20001,-2.67004 -2.66998,-2.67004 z"
       fill="#3f3d56"
       id="path214"
       style="stroke-width:4.03624" /></g><g
     id="g748"
     transform="matrix(0.38630727,0,0,0.46289373,39.645857,319.57115)"
     style="stroke-width:2.36479"><rect
       x="374.69009"
       y="0.99996001"
       width="514.52478"
       height="334.28522"
       fill="#ffffff"
       id="rect601"
       style="stroke-width:3.56163" /><path
       d="M 1045.1074,533.811 H 528.58254 V 197.52588 h 516.52486 z m -514.52486,-2 H 1043.1074 V 199.52588 H 530.58254 Z"
       transform="translate(-154.89256,-197.52588)"
       fill="#e4e4e4"
       id="path603"
       style="stroke-width:3.56163" /><path
       d="m 754.50963,231.22089 c 15.11286,0.25809 15.1105,22.73818 -4.8e-4,22.99407 -15.11238,-0.25808 -15.11001,-22.73817 4.8e-4,-22.99407 z"
       transform="translate(-154.89256,-197.52588)"
       fill="#3f3d56"
       id="path605"
       style="stroke-width:3.56163" /><path
       d="m 786.84505,231.22089 c 15.11286,0.25809 15.11049,22.73818 -4.9e-4,22.99407 -15.11237,-0.25808 -15.11,-22.73817 4.9e-4,-22.99407 z"
       transform="translate(-154.89256,-197.52588)"
       fill="#ffffff"
       id="path607"
       style="stroke-width:3.56163" /><path
       d="m 819.18047,231.22089 c 15.11286,0.25809 15.11049,22.73818 -4.9e-4,22.99407 -15.11237,-0.25808 -15.10998,-22.73817 4.9e-4,-22.99407 z"
       transform="translate(-154.89256,-197.52588)"
       fill="#cacaca"
       id="path609"
       style="stroke-width:3.56163" /><rect
       x="463.56256"
       y="121.72687"
       width="102.90499"
       height="1.24733"
       fill="#cacaca"
       id="rect611"
       style="stroke-width:3.56163" /><path
       d="M 955.85864,500.116 H 814.28639 V 367.89873 h 141.57225 z m -140.325,-1.24733 H 954.61126 V 369.14606 H 815.53373 Z"
       transform="translate(-154.89256,-197.52588)"
       fill="#cacaca"
       id="path613"
       style="stroke-width:3.56163" /><rect
       x="884.44867"
       y="338.03314"
       width="1.24771"
       height="191.94847"
       transform="rotate(-46.97487,580.35069,513.46557)"
       fill="#cacaca"
       id="rect615"
       style="stroke-width:3.56163" /><rect
       x="789.09833"
       y="433.38354"
       width="191.94846"
       height="1.24771"
       transform="rotate(-43.02234,557.04517,531.74095)"
       fill="#cacaca"
       id="rect617"
       style="stroke-width:3.56163" /><path
       d="M 955.85864,301.7901 H 617.83145 v -23.07567 h 338.02719 z m -336.77985,-1.24733 h 335.53255 v -20.581 H 619.07879 Z"
       transform="translate(-154.89256,-197.52588)"
       fill="#cacaca"
       id="path619"
       style="stroke-width:3.56163" /><path
       d="M 742.85864,403.7901 H 618.83145 v -23.07567 h 124.02719 z m -122.77985,-1.24733 h 121.53255 v -20.581 H 620.07879 Z"
       transform="translate(-154.89256,-197.52588)"
       fill="#cacaca"
       id="path621"
       style="stroke-width:3.56163" /><path
       d="M 742.85864,442.7901 H 618.83145 v -23.07567 h 124.02719 z m -122.77985,-1.24733 h 121.53255 v -20.581 H 620.07879 Z"
       transform="translate(-154.89256,-197.52588)"
       fill="#cacaca"
       id="path623"
       style="stroke-width:3.56163" /><path
       d="M 742.85864,481.7901 H 618.83145 v -23.07567 h 124.02719 z m -122.77985,-1.24733 h 121.53255 v -20.581 H 620.07879 Z"
       transform="translate(-154.89256,-197.52588)"
       fill="#cacaca"
       id="path625"
       style="stroke-width:3.56163" /><path
       d="m 651.31247,347.84605 h -33.26514 c 2.56789,-10.33416 2.25807,-21.51354 0,-33.26514 h 33.26514 a 41.35224,41.35224 0 0 0 0,33.26514 z"
       transform="translate(-154.89256,-197.52588)"
       fill="#ffffff"
       id="path627"
       style="stroke-width:3.56163" /><rect
       x="468.19489"
       y="124.11127"
       width="20.160681"
       height="4.0321398"
       fill="#ffffff"
       id="rect629"
       style="stroke-width:3.56163" /><rect
       x="468.19489"
       y="132.17554"
       width="20.160681"
       height="4.0321398"
       fill="#ffffff"
       id="rect631"
       style="stroke-width:3.56163" /><rect
       x="468.19489"
       y="140.23982"
       width="20.160681"
       height="4.0321398"
       fill="#ffffff"
       id="rect633"
       style="stroke-width:3.56163" /><path
       d="m 901.81932,398.08319 h -33.26514 c 2.56789,-10.33415 2.25808,-21.51353 0,-33.26513 h 33.26514 a 41.35222,41.35222 0 0 0 0,33.26513 z"
       transform="translate(-154.89256,-197.52588)"
       fill="#ffffff"
       id="path635"
       style="stroke-width:3.56163" /><rect
       x="718.70178"
       y="174.3484"
       width="20.160681"
       height="4.0321398"
       fill="#ffffff"
       id="rect637"
       style="stroke-width:3.56163" /><rect
       x="718.70178"
       y="182.41267"
       width="20.160681"
       height="4.0321398"
       fill="#ffffff"
       id="rect639"
       style="stroke-width:3.56163" /><rect
       x="718.70178"
       y="190.47694"
       width="20.160681"
       height="4.0321398"
       fill="#ffffff"
       id="rect641"
       style="stroke-width:3.56163" /><path
       d="m 944.58874,326.80076 h -33.26513 c 2.56788,-10.33416 2.25807,-21.51354 0,-33.26514 h 33.26513 a 41.35257,41.35257 0 0 0 0,33.26514 z"
       transform="translate(-154.89256,-197.52588)"
       fill="#ffffff"
       id="path643"
       style="stroke-width:3.56163" /><rect
       x="761.47119"
       y="103.06598"
       width="20.160681"
       height="4.0321398"
       fill="#ffffff"
       id="rect645"
       style="stroke-width:3.56163" /><rect
       x="761.47119"
       y="111.13024"
       width="20.160681"
       height="4.0321398"
       fill="#ffffff"
       id="rect647"
       style="stroke-width:3.56163" /><rect
       x="761.47119"
       y="119.19453"
       width="20.160681"
       height="4.0321398"
       fill="#ffffff"
       id="rect649"
       style="stroke-width:3.56163" /><path
       d="m 361.491,350.97412 h -57 v -30.5 a 28.5,28.5 0 0 1 57,0 z"
       transform="translate(-154.89256,-197.52588)"
       fill="#2f2e41"
       id="path651"
       style="stroke-width:3.56163" /><polygon
       points="232.041,445.505 232.043,492.792 244.302,492.792 250.135,445.504 "
       fill="#ffb6b6"
       id="polygon653"
       style="stroke-width:3.56163" /><path
       d="m 383.80792,686.31539 24.144,-10e-4 h 0.001 a 15.38728,15.38728 0 0 1 15.38648,15.38623 v 0.5 l -39.53076,0.001 z"
       transform="translate(-154.89256,-197.52588)"
       fill="#2f2e41"
       id="path655"
       style="stroke-width:3.56163" /><polygon
       points="108.736,435.252 85.489,476.431 96.165,482.458 124.493,444.147 "
       fill="#ffb6b6"
       id="polygon657"
       style="stroke-width:3.56163" /><path
       d="m 239.62645,668.93413 21.02514,11.86922 8.5e-4,4.8e-4 a 15.38731,15.38731 0 0 1 5.83414,20.96288 l -0.24582,0.4354 -34.42415,-19.43345 z"
       transform="translate(-154.89256,-197.52588)"
       fill="#2f2e41"
       id="path659"
       style="stroke-width:3.56163" /><path
       d="m 318.7352,477.64668 -0.94608,4.73044 c 0,0 -2.83825,2.83825 -1.41913,4.25738 1.41912,1.41913 0.94609,8.04172 0.94609,8.04172 -0.7937,12.07594 -16.57267,79.93554 -19.39476,93.18936 0,0 -21.76,14.19128 -38.78949,42.10077 -17.02949,27.90949 -17.50256,35.00513 -17.50256,35.00513 l 18.92169,8.04174 47.30425,-57.23815 c 0,0 13.24519,-8.04175 17.97561,-15.13739 4.73042,-7.09564 34.05907,-80.41724 34.05907,-80.41724 l 16.55649,76.63287 c 0,0 -0.94608,27.90949 3.31131,45.88513 a 192.52086,192.52086 0 0 1 4.73041,34.53211 l 22.233,-2.36524 c 0,0 -1.41913,-67.172 -3.78433,-74.2677 0,0 9.9339,-81.83636 -9.9339,-114.47628 L 376.991,443.47412 361.309,437.43794 Z"
       transform="translate(-154.89256,-197.52588)"
       fill="#2f2e41"
       id="path661"
       style="stroke-width:3.56163" /><path
       d="m 332.69863,299.42967 c 29.84706,0.50973 29.84238,44.90667 -10e-4,45.412 -29.84607,-0.50967 -29.84139,-44.90659 10e-4,-45.412 z"
       transform="translate(-154.89256,-197.52588)"
       fill="#ffb8b8"
       id="path663"
       style="stroke-width:3.56163" /><path
       d="m 355.66774,320.95752 h -5.07251 l -1.38134,-3.45361 0.69067,3.45361 h -27.74414 l 0.90283,-7.22656 -6.74414,7.22656 h -6.72729 v -3.916 a 23.038,23.038 0 1 1 46.07592,0 z"
       transform="translate(-154.89256,-197.52588)"
       fill="#2f2e41"
       id="path665"
       style="stroke-width:3.56163" /><path
       d="m 363.4744,358.1045 -56.40467,0.45658 11.92126,120.913 c 0,0 65.95917,-3.48105 66,-23.61394 l -6.17935,-17.89091 z"
       transform="translate(-154.89256,-197.52588)"
       fill="#e4e4e4"
       id="path667"
       style="stroke-width:3.56163" /><path
       id="a921541c-c001-4299-8f7c-75c007cac120-524"
       data-name="Path 138"
       d="M 468.44536,569.08545 271.824,609.803 c -2.01069,0.41105 -4.3295,-2.58308 -5.18388,-6.69591 l -20.66643,-99.79626 c -0.85164,-4.11253 0.0901,-7.78095 2.09833,-8.204 l 196.62132,-40.71755 c 2.01069,-0.411 4.32951,2.58308 5.18388,6.6959 l 20.66625,99.79538 c 0.84912,4.1131 -0.0922,7.7841 -2.09811,8.20489 z"
       transform="translate(-154.89256,-197.52588)"
       fill="#ffffff"
       style="stroke-width:3.56163" /><g
       id="a63949a2-a794-48d0-a35a-8c12e4616a27"
       data-name="Group 38"
       style="stroke-width:2.36479"><circle
         id="bdfdee77-367c-420e-9119-e33862087a46"
         data-name="Ellipse 7"
         cx="164.59544"
         cy="323.9978"
         r="17.55831"
         fill="#f0f0f0"
         style="stroke-width:3.56163" /><path
         id="f21c0c69-10dc-4e04-b124-1a0d4dcadc3b-525"
         data-name="Path 63"
         d="m 384.377,563.341 -84.34547,17.46678 a 1.76273,1.76273 0 0 1 -0.32015,0.0395 l 25.58424,-77.35792 a 2.85168,2.85168 0 0 1 4.862,-1.00684 l 36.37438,40.82537 1.74268,1.95262 z"
         transform="translate(-154.89256,-197.52588)"
         fill="#e4e4e4"
         style="stroke-width:3.56163" /><path
         id="a63814cd-9c0a-4ddf-af41-edb1ac5f3322-526"
         data-name="Path 65"
         d="m 431.33785,553.6169 -72.95246,15.10745 9.88384,-23.46 0.71089,-1.68986 12.87976,-30.57392 a 3.80656,3.80656 0 0 1 5.46857,-1.47684 3.39828,3.39828 0 0 1 0.33359,0.2753 z"
         transform="translate(-154.89256,-197.52588)"
         fill="#e4e4e4"
         style="stroke-width:3.56163" /></g><path
       id="e00a8b63-2679-46d7-8caf-93b6261f662d-527"
       data-name="Path 138"
       d="M 468.44536,569.08545 271.824,609.803 c -2.01069,0.41105 -4.3295,-2.58308 -5.18388,-6.69591 l -20.66643,-99.79626 c -0.85164,-4.11253 0.0901,-7.78095 2.09833,-8.204 l 196.62132,-40.71755 c 2.01069,-0.411 4.32951,2.58308 5.18388,6.6959 l 20.66625,99.79538 c 0.84912,4.1131 -0.0922,7.7841 -2.09811,8.20489 z M 248.68912,498.08666 c -1.20627,0.2498 -1.76856,2.45492 -1.25933,4.92259 l 20.66621,99.79543 c 0.51095,2.46732 1.90387,4.26487 3.11072,4.01762 l 196.62133,-40.71756 c 1.20627,-0.2498 1.76873,-2.45409 1.25933,-4.92259 l -20.66624,-99.79538 c -0.51095,-2.46732 -1.90387,-4.26487 -3.11073,-4.01762 z"
       transform="translate(-154.89256,-197.52588)"
       fill="#cacaca"
       style="stroke-width:3.56163" /><path
       d="m 410.27276,476.71558 a 9.37695,9.37695 0 0 1 -3.67316,-13.90137 l -11.42228,-18.12982 9.32448,-9.62842 15.77087,25.82937 a 9.42779,9.42779 0 0 1 -9.99991,15.83024 z"
       transform="translate(-154.89256,-197.52588)"
       fill="#ffb6b6"
       id="path675"
       style="stroke-width:3.56163" /><path
       d="m 354.80786,362.86649 8.18313,-5.39237 c 0,0 6.31465,1.41565 13.0311,14.33421 6.71645,12.91856 33.80113,70.67167 33.80113,70.67167 L 398.69048,453.7828 368.991,408.47412 Z"
       transform="translate(-154.89256,-197.52588)"
       fill="#e4e4e4"
       id="path677"
       style="stroke-width:3.56163" /><path
       d="m 304.65565,491.16332 a 9.377,9.377 0 0 0 -2.70495,-14.12174 l 2.45085,-21.28737 -12.573,-4.6445 -3.03886,30.1105 a 9.42779,9.42779 0 0 0 15.866,9.94311 z"
       transform="translate(-154.89256,-197.52588)"
       fill="#ffb6b6"
       id="path679"
       style="stroke-width:3.56163" /><path
       d="m 314.491,368.97412 -7.42126,-10.3728 c 0,0 -5.07874,-1.1272 -11.07874,5.8728 -6,7 -9.5,94.5 -9.5,94.5 l 22,5 13,-62 z"
       transform="translate(-154.89256,-197.52588)"
       fill="#e4e4e4"
       id="path681"
       style="stroke-width:3.56163" /><path
       d="m 536.89256,702.47412 h -381 a 1,1 0 0 1 0,-2 h 381 a 1,1 0 0 1 0,2 z"
       transform="translate(-154.89256,-197.52588)"
       fill="#cacaca"
       id="path683"
       style="stroke-width:3.56163" /><path
       d="m 291.74681,521.52578 -32.53981,6.90889 c 0.36558,-10.64214 -2.25935,-21.5134 -6.90889,-32.53977 l 32.53977,-6.90889 a 41.35261,41.35261 0 0 0 6.90893,32.53977 z"
       transform="translate(-154.89256,-197.52588)"
       fill="#ffffff"
       id="path685"
       style="stroke-width:3.56163" /><rect
       x="258.89285"
       y="499.61292"
       width="20.160681"
       height="4.0321398"
       transform="rotate(-11.98711,-749.15767,1140.5162)"
       fill="#ffffff"
       id="rect687"
       style="stroke-width:3.56163" /><rect
       x="260.56772"
       y="507.50134"
       width="20.160681"
       height="4.0321398"
       transform="rotate(-11.98711,-747.48279,1148.4046)"
       fill="#ffffff"
       id="rect689"
       style="stroke-width:3.56163" /><rect
       x="262.24261"
       y="515.38977"
       width="20.160681"
       height="4.0321398"
       transform="rotate(-11.98711,-745.80787,1156.293)"
       fill="#ffffff"
       id="rect691"
       style="stroke-width:3.56163" /></g><g
     id="g1141"
     transform="matrix(0.40575506,0,0,0.49207915,425.82934,316.98414)"
     style="stroke-width:2.23795"><path
       d="M 1039.7995,146.935 H 432.79947 a 8.72734,8.72734 0 0 0 -8.71972,8.72 v 219.41 h 146.8999 a 15.01828,15.01828 0 0 1 15,15 v 185.63 h 453.81985 a 8.71245,8.71245 0 0 0 6.6303,-3.06 2.0439,2.0439 0 0 0 0.19,-0.24 8.16642,8.16642 0 0 0 1.25,-2.11005 8.507,8.507 0 0 0 0.6597,-3.31 V 155.655 a 8.72954,8.72954 0 0 0 -8.73,-8.72 z"
       transform="translate(-151.47055,-146.935)"
       fill="#f2f2f2"
       id="path1048"
       style="stroke-width:4.35649" /><rect
       x="273.84973"
       y="34.951172"
       width="621.95679"
       height="2.49281"
       fill="#cccccc"
       id="rect1050"
       style="stroke-width:4.35649" /><circle
       cx="295.03864"
       cy="18.698059"
       r="7.4784398"
       fill="#cccccc"
       id="circle1052"
       style="stroke-width:4.35649" /><circle
       cx="316.53915"
       cy="18.698059"
       r="7.4784398"
       fill="#cccccc"
       id="circle1054"
       style="stroke-width:4.35649" /><circle
       cx="338.03964"
       cy="18.698059"
       r="7.4784398"
       fill="#cccccc"
       id="circle1056"
       style="stroke-width:4.35649" /><path
       d="m 892.29947,236.315 h -312 a 13,13 0 0 0 0,26 h 312 a 13,13 0 0 0 0,-26 z m 0,24 h -312 a 11,11 0 0 1 0,-22 h 312 a 11,11 0 0 1 0,22 z"
       transform="translate(-151.47055,-146.935)"
       fill="#cccccc"
       id="path1058"
       style="stroke-width:4.35649" /><path
       d="m 987.76969,339.885 h -312 a 13,13 0 0 0 0,26 h 312 a 13,13 0 0 0 0,-26 z"
       transform="translate(-151.47055,-146.935)"
       fill="#ffffff"
       id="path1060"
       style="stroke-width:4.35649" /><path
       d="m 987.76969,387.885 h -312 a 13,13 0 0 0 0,26 h 312 a 13,13 0 0 0 0,-26 z"
       transform="translate(-151.47055,-146.935)"
       fill="#ffffff"
       id="path1062"
       style="stroke-width:4.35649" /><path
       d="m 987.76969,435.885 h -312 a 13,13 0 0 0 0,26 h 312 a 13,13 0 0 0 0,-26 z"
       transform="translate(-151.47055,-146.935)"
       fill="#ffffff"
       id="path1064"
       style="stroke-width:4.35649" /><path
       d="m 625.34976,318.385 h -142.02 a 11.50392,11.50392 0 0 0 -11.49024,11.49 v 45.19 h 2 v -45.19 a 9.50457,9.50457 0 0 1 9.49024,-9.49 h 142.02 a 9.49788,9.49788 0 0 1 9.48975,9.49 v 142.02 a 9.49788,9.49788 0 0 1 -9.48975,9.49 h -39.37011 v 2 h 39.37011 a 11.49727,11.49727 0 0 0 11.48975,-11.49 v -142.02 a 11.49723,11.49723 0 0 0 -11.48975,-11.49 z"
       transform="translate(-151.47055,-146.935)"
       fill="#cccccc"
       id="path1066"
       style="stroke-width:4.35649" /><path
       d="m 257.0941,464.50258 c -0.50236,0.0203 -21.91024,-1.464 -22.45679,-1.48242 l 1.9231,-19.19727 12.19336,-0.36718 23.3,-43.15528 c -3.23157,-6.162 0.745,-14.33826 7.60026,-15.59852 13.81387,-3.13979 18.55923,18.59332 4.70321,21.48524 l -19.27222,52.7334 a 8.54966,8.54966 0 0 1 -7.99092,5.58203 z"
       transform="translate(-151.47055,-146.935)"
       fill="#ffb8b8"
       id="path1068"
       style="stroke-width:4.35649" /><path
       d="m 200.65489,474.39028 c -20.3716,0.05 -22.15993,-30.73767 -1.74315,-32.90723 53.9884,-3.26208 47.15636,-16.82179 51.25631,23.17516 a 4.5045,4.5045 0 0 1 -3.9946,4.95375 l -43.75025,4.68359 a 16.63489,16.63489 0 0 1 -1.76831,0.0947 z"
       transform="translate(-151.47055,-146.935)"
       fill="#ffffff"
       id="path1070"
       style="stroke-width:4.35649" /><path
       d="m 196.00552,377.0499 c 28.06453,15.96985 5.02494,58.10625 -23.56276,43.10183 -28.06364,-15.96931 -5.02405,-58.10573 23.56276,-43.10183 z"
       transform="translate(-151.47055,-146.935)"
       fill="#ffb8b8"
       id="path1072"
       style="stroke-width:4.35649" /><polygon
       points="70.049,592.823 82.308,592.822 88.141,545.534 70.047,545.535 "
       fill="#ffb8b8"
       id="polygon1074"
       style="stroke-width:4.35649" /><path
       d="m 218.89263,751.14218 38.53073,-0.002 c -0.14718,-19.88089 -25.9182,-14.15221 -38.53141,-14.88512 z"
       transform="translate(-151.47055,-146.935)"
       fill="#2f2e41"
       id="path1076"
       style="stroke-width:4.35649" /><polygon
       points="17.049,592.823 29.308,592.822 35.141,545.534 17.047,545.535 "
       fill="#ffb8b8"
       id="polygon1078"
       style="stroke-width:4.35649" /><path
       d="m 165.89263,751.14218 38.53073,-0.002 c -0.14718,-19.88089 -25.9182,-14.15221 -38.53141,-14.88512 z"
       transform="translate(-151.47055,-146.935)"
       fill="#2f2e41"
       id="path1080"
       style="stroke-width:4.35649" /><path
       d="m 182.4525,723.24282 c -2.963,-0.81313 -19.06382,1.646 -20.964,-1.582 -6.636,-66.51114 -5.16091,-131.60265 9.56972,-167.37011 l 50.6482,-3.10059 c 11.32584,20.6755 37.36026,157.87463 21.6559,166.21643 l -20.19448,0.7201 a 5.01824,5.01824 0 0 1 -5.0393,-3.82618 l -16.89478,-96.11718 c -4.20722,-5.881 -12.4773,101.22422 -13.843,100.82371 a 4.97808,4.97808 0 0 1 -4.93826,4.23582 z"
       transform="translate(-151.47055,-146.935)"
       fill="#2f2e41"
       id="path1082"
       style="stroke-width:4.35649" /><path
       d="m 169.44957,562.69789 c -25.57159,-26.75341 -9.26039,-98.47865 -10.08593,-96.95311 0.0701,-1.757 5.862,-28.816 20.84448,-33.25691 11.8867,-3.92293 25.04321,7.81175 26.66606,19.68051 l 17.80635,105.15331 a 3.69838,3.69838 0 0 1 -1.01367,3.18 c 0.87553,2.72609 -52.96544,1.64996 -54.21729,2.1962 z"
       transform="translate(-151.47055,-146.935)"
       fill="#ffffff"
       id="path1084"
       style="stroke-width:4.35649" /><path
       d="m 177.74856,395.86826 c 2.24569,-1.41969 3.35253,-3.8545 4.65967,-6.07256 6.88544,-3.92419 14.80077,5.56884 22.08344,2.026 20.59268,-19.76915 -0.57431,-25.60141 -19.54049,-26.64389 -4.48038,-0.55218 -8.29173,1.03713 -11.6791,3.66209 -37.88569,-2.89341 -19.71625,47.48278 4.19421,54.13638 4.22161,1.84908 7.38845,-1.8935 3.66551,-5.29548 -5.15089,-5.40014 -11.53162,-16.27005 -3.38324,-21.81254 z"
       transform="translate(-151.47055,-146.935)"
       fill="#2f2e41"
       id="path1086"
       style="stroke-width:4.35649" /><path
       d="m 570.97965,373.065 h -274 a 17.02411,17.02411 0 0 0 -17,17 v 346 a 17.0241,17.0241 0 0 0 17,17 h 274 a 17.02411,17.02411 0 0 0 17,-17 v -346 a 17.02412,17.02412 0 0 0 -17,-17 z m 15,363 a 15.01828,15.01828 0 0 1 -15,15 h -274 a 15.01828,15.01828 0 0 1 -15,-15 v -346 a 15.01828,15.01828 0 0 1 15,-15 h 274 a 15.01828,15.01828 0 0 1 15,15 z"
       transform="translate(-151.47055,-146.935)"
       fill="#3f3d56"
       id="path1088"
       style="stroke-width:4.35649" /><path
       d="m 219.77721,518.66274 c -9.0306,1.02306 -12.99534,-19.99215 -16.448,-25.34668 l 17.98486,-6.9834 5.85205,10.70312 49.02808,1.21875 a 10.67752,10.67752 0 0 1 0.95239,-1.12011 v 0 c 9.72314,-10.18066 25.55743,5.07331 15.87108,15.2321 A 11.03583,11.03583 0 0 1 276.5211,511.8893 c -1.21078,0.0864 -55.55984,6.80521 -56.74389,6.77344 z"
       transform="translate(-151.47055,-146.935)"
       fill="#ffb8b8"
       id="path1090"
       style="stroke-width:4.35649" /><path
       d="m 206.45836,508.63149 c -3.0069,2.89718 -26.09073,-37.77326 -27.77718,-38.92289 -11.66432,-18.12981 15.79569,-36.02983 27.661,-17.99809 l 23.99705,36.879 a 4.50461,4.50461 0 0 1 -1.31738,6.22558 c -1.09367,0.51205 -21.79168,14.9177 -22.56349,13.8164 z"
       transform="translate(-151.47055,-146.935)"
       fill="#ffffff"
       id="path1092"
       style="stroke-width:4.35649" /><path
       d="m 516.98006,612.565 h -166 c -16.957,-0.0817 -17.0275,-25.9115 8.4e-4,-26 h 165.99916 c 16.94506,0.0794 17.03689,25.91122 0,26 z"
       transform="translate(-151.47055,-146.935)"
       fill="#cccccc"
       id="path1094"
       style="stroke-width:4.35649" /><path
       d="m 516.98006,660.565 h -166 c -16.957,-0.0817 -17.0275,-25.9115 8.4e-4,-26 h 165.99916 c 16.94506,0.0794 17.03689,25.91122 0,26 z"
       transform="translate(-151.47055,-146.935)"
       fill="#cccccc"
       id="path1096"
       style="stroke-width:4.35649" /><path
       d="m 516.98006,708.565 h -166 c -16.957,-0.0817 -17.0275,-25.9115 8.4e-4,-26 h 165.99916 c 16.94506,0.0794 17.03689,25.91122 0,26 z"
       transform="translate(-151.47055,-146.935)"
       fill="#cccccc"
       id="path1098"
       style="stroke-width:4.35649" /><path
       d="m 578.97965,405.065 a 26,26 0 1 1 26,-26 26.02947,26.02947 0 0 1 -26,26 z"
       transform="translate(-151.47055,-146.935)"
       fill="#ffffff"
       id="path1100"
       style="stroke-width:4.35649" /><path
       d="m 590.97965,378.065 h -11 v -12.5 a 1,1 0 0 0 -2,0 v 12.5 h -11 a 1,1 0 0 0 0,2 h 11 v 12.5 a 1,1 0 1 0 2,0 v -12.5 h 11 a 1,1 0 0 0 0,-2 z"
       transform="translate(-151.47055,-146.935)"
       fill="#ffffff"
       id="path1102"
       style="stroke-width:4.35649" /><path
       d="m 513.97965,555.36481 h -160 a 16.51867,16.51867 0 0 1 -16.5,-16.5 V 449.2652 a 16.51866,16.51866 0 0 1 16.5,-16.5 h 160 a 16.51867,16.51867 0 0 1 16.5,16.5 v 89.59961 a 16.51868,16.51868 0 0 1 -16.5,16.5 z"
       transform="translate(-151.47055,-146.935)"
       fill="#ffffff"
       id="path1104"
       style="stroke-width:4.35649" /></g><style
     type="text/css"
     id="style132">
	.st0{fill:url(#SVGID_1_);}
	.st1{fill:url(#SVGID_00000176743908085080752740000011311980514277175478_);}
	.st2{fill:url(#SVGID_00000146490418850435254750000017482044537969748127_);}
	.st3{fill:url(#SVGID_00000128484305402190082290000000762630239224334751_);}
	.st4{font-family:'IncompleetaRegular';}
	.st5{font-size:258.1699px;}
</style><g
     id="g2200"
     style="fill:url(#linearGradient2222);fill-opacity:1;fill-rule:nonzero;stroke-width:2.27362"
     transform="matrix(0.43743307,-0.04584387,0.04584387,0.43743307,-8.3367929,46.406265)"><path
       style="fill:url(#linearGradient4969);fill-opacity:1;fill-rule:nonzero;stroke-width:0;stroke-dasharray:none"
       d="m 542.70581,103.75996 h 36.48467 v 24.1475 h -36.48467 v 37.38219 H 518.99077 V 127.90746 H 482.5061 v -24.1475 h 36.48467 V 66.609955 h 23.71504 z"
       id="path192" /><g
       id="g325"
       style="fill:url(#linearGradient1362);fill-opacity:1;stroke-width:2.27362"
       transform="matrix(0.66738203,0,0,0.66738203,93.576664,56.129991)">
	<path
   class="st0"
   d="m 278.4,257.1 c 0.1,0.5 0.2,0.9 0.5,1.4 0.4,0.9 0.8,1.9 1.2,2.7"
   id="path305"
   style="fill:url(#linearGradient1046);fill-opacity:1;stroke-width:3.40675" />
	<path
   class="st0"
   d="m 336.7,294 h 0.6 z"
   id="path307"
   style="fill:url(#linearGradient1048);fill-opacity:1;stroke-width:3.40675" />
	<path
   class="st0"
   d="m 339,294 c -0.2,0 -0.5,0 -0.7,0 h 0.3 z"
   id="path309"
   style="fill:url(#linearGradient1050);fill-opacity:1;stroke-width:3.40675" />
	<path
   class="st0"
   d="m 338.6,294 h -0.3 c 0.2,0 0.5,0 0.7,0 z"
   id="path311"
   style="fill:url(#linearGradient1052);fill-opacity:1;stroke-width:3.40675" />
	<path
   class="st0"
   d="m 402.9,271.4 c -6.8,-22.4 -6.8,-46.4 0,-68.8 2.1,-7.7 5.2,-15.1 9,-22 0.5,-0.9 0.9,-1.8 1.4,-2.7 -18.7,-26.5 -49.2,-42.2 -81.6,-42.2 -4.9,0 -9.7,0.4 -14.5,1.1 -14.8,2.2 -29,7.7 -41.4,16.2 -1.2,0.7 -2.3,1.5 -3.4,2.3 -23.6,17.4 -38.6,44.2 -41,73.5 -0.3,2.7 -0.4,5.4 -0.4,8.1 v 0 c -0.1,52.8 40.4,96.7 93,101 0.8,0.1 1.7,0.2 2.5,0.2 1.7,0 3.5,0 5.2,0 32.5,0 62.9,-15.8 81.7,-42.3 -4.4,-7.8 -7.9,-15.9 -10.5,-24.4 z m -71.3,24.5 c -32.5,0.2 -59,-26 -59.2,-58.5 -0.2,-32.5 26,-59 58.5,-59.2 32.5,-0.2 59,26 59.2,58.5 0,0.1 0,0.2 0,0.3 0.1,32.5 -26.1,58.8 -58.5,58.9 0,0 0,0 0,0 z"
   id="path313"
   style="fill:url(#linearGradient1054);fill-opacity:1;stroke-width:3.40675" />
	<ellipse
   class="st0"
   cx="54.200001"
   cy="168.7"
   rx="36.599998"
   ry="36.799999"
   id="ellipse315"
   style="fill:url(#linearGradient1056);fill-opacity:1;stroke-width:3.40675" />
	<path
   class="st0"
   d="m 202.3,131.9 v 68.6 c -58.3,18.7 -100.2,69.7 -100.2,129.6 0,1 0,2 0,3 H 31.8 c 0.9,-99.2 73.8,-181.6 170.5,-201.2 z"
   id="path317"
   style="fill:url(#linearGradient1058);fill-opacity:1;stroke-width:3.40675" />
	<path
   class="st0"
   d="m 619.7,221.4 c 0.2,2.3 -0.5,4.5 -2.1,6.2 -1.5,1.6 -3.6,2.6 -5.8,2.7 -8.3,0.2 -16.5,0.3 -24.8,0.4 -3.8,0.1 -7.1,-2.4 -8,-6.1 -6.6,-31.4 -36.1,-52.5 -66,-48.2 -22.6,3.2 -51.9,31.1 -49.4,64.1 0.2,2.4 2.9,32.4 27.9,44.6 9.9,4.6 21,5.9 31.6,3.5 3,-1.5 6.6,-1.3 9.5,0.6 0.8,0.8 1.5,1.7 2,2.7 0.4,1 0.7,2.1 0.7,3.2 v 30.7 c -0.1,4 -3.1,7.4 -7,7.9 -8.6,1 -17.4,0.8 -26,-0.7 -5,-0.8 -9.9,-2.1 -14.6,-3.7 -2.2,-0.7 -4.3,-1.6 -6.4,-2.5 -1,-0.4 -2,-0.8 -3,-1.3 -1.5,-0.6 -3,-1.3 -4.4,-2.1 -0.6,-0.2 -1.1,-0.4 -1.5,-0.8 -1.2,-0.6 -2.4,-1.3 -3.6,-2.1 -1.5,-0.8 -2.9,-1.7 -4.3,-2.7 -4.2,-2.9 -8.2,-6 -11.9,-9.4 -2.6,-2.5 -5.1,-5.2 -7.3,-8.1 -1.2,-1.4 -2.4,-2.7 -3.5,-4.3 0,0 0,0.2 -0.2,0.3 -1.9,-2.3 -3.6,-4.6 -5.2,-7.1 -3.1,-4.6 -5.8,-9.5 -8,-14.6 -1.4,-3 -2.6,-6.1 -3.6,-9.3 -2.2,-6.1 -3.7,-12.5 -4.5,-18.9 -1.9,-14.9 -0.5,-30.1 4.2,-44.5 1.1,-3.4 2.4,-6.8 3.9,-10.1 1.7,-3.8 3.7,-7.6 5.9,-11.2 2,-3.3 4.2,-6.5 6.6,-9.6 v 0 c 0.3,-0.5 0.6,-1 1,-1.4 0.6,-1 1.3,-1.9 2.1,-2.7 18.3,-22.7 45.9,-35.9 75,-35.9 11.5,0.1 22.8,2.2 33.5,6.5 1.7,0.5 3.3,1.2 4.9,1.9 23.3,9.3 42.3,26.9 53.2,49.4 5,10.1 8.1,21.2 9.1,32.6 z"
   id="path319"
   style="fill:url(#linearGradient1060);fill-opacity:1;stroke-width:3.40675" />
	<path
   class="st0"
   d="m 272.5,18.9 v 109.3 c 0,2.4 -1.3,4.6 -3.3,5.9 -10.9,6.8 -20.7,15.1 -29.1,24.8 -2.5,2.8 -6.9,3.1 -9.7,0.6 -1.5,-1.3 -2.3,-3.2 -2.3,-5.2 l -0.9,-70.8 c 0.2,-7.2 0,-9.8 -6.9,-6.9 -2.5,1.3 -6,3.1 -10.1,5.2 -6.2,3.1 -8.1,4 -10.8,3.6 -2.6,-0.2 -5,-1.8 -6.3,-4.1 -0.9,-2.5 -0.5,-5.3 1.1,-7.5 l 41,-61.5 0.4,-0.4 h 29.9 c 3.9,0.1 7,3.2 7,7 z"
   id="path321"
   style="fill:url(#linearGradient1062);fill-opacity:1;stroke-width:3.40675" />
	<path
   class="st0"
   d="m 622.4,255.4 v 74.8 c 0,3.9 -3.2,7.1 -7.1,7.1 0,0 0,0 0,0 h -30.7 c -3.9,0 -7.1,-3.2 -7.1,-7.1 0,0 0,0 0,0 v -15.1 c -5.7,4.2 -11.8,7.9 -18.1,11 -3.7,1.9 -8.3,0.4 -10.2,-3.3 -0.5,-1.1 -0.8,-2.2 -0.8,-3.4 v -32.9 c 0.1,-2.5 1.4,-4.9 3.4,-6.3 10.8,-7.8 18.9,-21.9 22.9,-29.7 1.8,-3.5 5.5,-5.8 9.4,-5.8 h 27.4 c 6.1,0 10.9,4.8 10.9,10.7 z"
   id="path323"
   style="fill:url(#linearGradient1064);fill-opacity:1;stroke-width:3.40675" />
</g></g></svg>
