<?xml version="1.0" encoding="UTF-8" standalone="no"?>
<!-- Generator: Adobe Illustrator 27.6.1, SVG Export Plug-In . SVG Version: 6.00 Build 0)  -->

<svg
   version="1.1"
   id="svg2"
   inkscape:version="1.2 (dc2aeda, 2022-05-15)"
   sodipodi:docname="RBA+ Logo.svg"
   x="0px"
   y="0px"
   viewBox="0 0 640 350"
   style="enable-background:new 0 0 640 350;"
   xml:space="preserve"
   xmlns:inkscape="http://www.inkscape.org/namespaces/inkscape"
   xmlns:sodipodi="http://sodipodi.sourceforge.net/DTD/sodipodi-0.dtd"
   xmlns:xlink="http://www.w3.org/1999/xlink"
   xmlns="http://www.w3.org/2000/svg"
   xmlns:svg="http://www.w3.org/2000/svg"><defs
   id="defs203"><linearGradient
     inkscape:collect="always"
     id="linearGradient1360"><stop
       style="stop-color:#ff2424;stop-opacity:1;"
       offset="0"
       id="stop1356" /><stop
       style="stop-color:#c30005;stop-opacity:1;"
       offset="1"
       id="stop1358" /></linearGradient><linearGradient
     inkscape:collect="always"
     id="linearGradient4981"><stop
       style="stop-color:#808080;stop-opacity:1;"
       offset="0"
       id="stop4977" /><stop
       style="stop-color:#fffcfc;stop-opacity:1;"
       offset="1"
       id="stop4979" /></linearGradient><linearGradient
     inkscape:collect="always"
     id="linearGradient1899"><stop
       style="stop-color:#ff000b;stop-opacity:1;"
       offset="0"
       id="stop1895" /><stop
       style="stop-color:#9d0000;stop-opacity:1;"
       offset="1"
       id="stop1897" /></linearGradient><linearGradient
     inkscape:collect="always"
     xlink:href="#linearGradient1899"
     id="linearGradient4967"
     x1="12.9"
     y1="165.05"
     x2="639.70001"
     y2="165.05"
     gradientUnits="userSpaceOnUse" /><linearGradient
     inkscape:collect="always"
     xlink:href="#linearGradient4981"
     id="linearGradient4969"
     gradientUnits="userSpaceOnUse"
     x1="12.9"
     y1="165.05"
     x2="614.09656"
     y2="191.59187"
     gradientTransform="matrix(0.76009733,0,0,0.77395837,92.956219,-11.792028)" /><linearGradient
     inkscape:collect="always"
     xlink:href="#linearGradient1360"
     id="linearGradient1362"
     x1="17.600002"
     y1="175"
     x2="622.4"
     y2="175"
     gradientUnits="userSpaceOnUse" /><linearGradient
     inkscape:collect="always"
     xlink:href="#linearGradient1360"
     id="linearGradient2202"
     gradientUnits="userSpaceOnUse"
     x1="17.600002"
     y1="175"
     x2="622.4"
     y2="175" /><linearGradient
     inkscape:collect="always"
     xlink:href="#linearGradient1360"
     id="linearGradient2204"
     gradientUnits="userSpaceOnUse"
     x1="17.600002"
     y1="175"
     x2="622.4"
     y2="175" /><linearGradient
     inkscape:collect="always"
     xlink:href="#linearGradient1360"
     id="linearGradient2206"
     gradientUnits="userSpaceOnUse"
     x1="17.600002"
     y1="175"
     x2="622.4"
     y2="175" /><linearGradient
     inkscape:collect="always"
     xlink:href="#linearGradient1360"
     id="linearGradient2208"
     gradientUnits="userSpaceOnUse"
     x1="17.600002"
     y1="175"
     x2="622.4"
     y2="175" /><linearGradient
     inkscape:collect="always"
     xlink:href="#linearGradient1360"
     id="linearGradient2210"
     gradientUnits="userSpaceOnUse"
     x1="17.600002"
     y1="175"
     x2="622.4"
     y2="175" /><linearGradient
     inkscape:collect="always"
     xlink:href="#linearGradient1360"
     id="linearGradient2212"
     gradientUnits="userSpaceOnUse"
     x1="17.600002"
     y1="175"
     x2="622.4"
     y2="175" /><linearGradient
     inkscape:collect="always"
     xlink:href="#linearGradient1360"
     id="linearGradient2214"
     gradientUnits="userSpaceOnUse"
     x1="17.600002"
     y1="175"
     x2="622.4"
     y2="175" /><linearGradient
     inkscape:collect="always"
     xlink:href="#linearGradient1360"
     id="linearGradient2216"
     gradientUnits="userSpaceOnUse"
     x1="17.600002"
     y1="175"
     x2="622.4"
     y2="175" /><linearGradient
     inkscape:collect="always"
     xlink:href="#linearGradient1360"
     id="linearGradient2218"
     gradientUnits="userSpaceOnUse"
     x1="17.600002"
     y1="175"
     x2="622.4"
     y2="175" /><linearGradient
     inkscape:collect="always"
     xlink:href="#linearGradient1360"
     id="linearGradient2220"
     gradientUnits="userSpaceOnUse"
     x1="17.600002"
     y1="175"
     x2="622.4"
     y2="175" /><linearGradient
     inkscape:collect="always"
     xlink:href="#linearGradient1899"
     id="linearGradient2222"
     gradientUnits="userSpaceOnUse"
     x1="12.9"
     y1="165.05"
     x2="639.70001"
     y2="165.05" /></defs><sodipodi:namedview
   id="namedview201"
   pagecolor="#ffffff"
   bordercolor="#000000"
   borderopacity="0.25"
   inkscape:showpageshadow="2"
   inkscape:pageopacity="0.0"
   inkscape:pagecheckerboard="0"
   inkscape:deskcolor="#d1d1d1"
   showgrid="false"
   inkscape:zoom="0.88862952"
   inkscape:cx="232.38031"
   inkscape:cy="77.084993"
   inkscape:window-width="1440"
   inkscape:window-height="809"
   inkscape:window-x="0"
   inkscape:window-y="25"
   inkscape:window-maximized="0"
   inkscape:current-layer="g194" />
<style
   type="text/css"
   id="style132">
	.st0{fill:url(#SVGID_1_);}
	.st1{fill:url(#SVGID_00000176743908085080752740000011311980514277175478_);}
	.st2{fill:url(#SVGID_00000146490418850435254750000017482044537969748127_);}
	.st3{fill:url(#SVGID_00000128484305402190082290000000762630239224334751_);}
	.st4{font-family:'IncompleetaRegular';}
	.st5{font-size:258.1699px;}
</style>
<g
   id="g198">
	<g
   id="g194"
   transform="translate(-4.2382805,2.5429683)"
   style="fill-opacity:1;fill:url(#linearGradient4967);fill-rule:nonzero">
		<linearGradient
   id="SVGID_1_"
   gradientUnits="userSpaceOnUse"
   x1="321.6041"
   y1="106.3976"
   x2="503.81369"
   y2="295.69312"
   style="fill-opacity:1;fill:url(#linearGradient4967)">
			<stop
   offset="0"
   style="stop-color:#0A6B37;fill-opacity:1;fill:url(#linearGradient4967)"
   id="stop134" />
			<stop
   offset="0.1426"
   style="stop-color:#125230;fill-opacity:1;fill:url(#linearGradient4967)"
   id="stop136" />
			<stop
   offset="0.3165"
   style="stop-color:#1A3C29;fill-opacity:1;fill:url(#linearGradient4967)"
   id="stop138" />
			<stop
   offset="0.505"
   style="stop-color:#1F2C24;fill-opacity:1;fill:url(#linearGradient4967)"
   id="stop140" />
			<stop
   offset="0.7167"
   style="stop-color:#222221;fill-opacity:1;fill:url(#linearGradient4967)"
   id="stop142" />
			<stop
   offset="1"
   style="stop-color:#231F20;fill-opacity:1;fill:url(#linearGradient4967)"
   id="stop144" />
		</linearGradient>
		
		
			<linearGradient
   id="SVGID_00000132792491515575476820000014404640672923191443_"
   gradientUnits="userSpaceOnUse"
   x1="321.6041"
   y1="106.3976"
   x2="503.81369"
   y2="295.69312"
   style="fill-opacity:1;fill:url(#linearGradient4967)">
			<stop
   offset="0"
   style="stop-color:#0A6B37;fill-opacity:1;fill:url(#linearGradient4967)"
   id="stop149" />
			<stop
   offset="0.1426"
   style="stop-color:#125230;fill-opacity:1;fill:url(#linearGradient4967)"
   id="stop151" />
			<stop
   offset="0.3165"
   style="stop-color:#1A3C29;fill-opacity:1;fill:url(#linearGradient4967)"
   id="stop153" />
			<stop
   offset="0.505"
   style="stop-color:#1F2C24;fill-opacity:1;fill:url(#linearGradient4967)"
   id="stop155" />
			<stop
   offset="0.7167"
   style="stop-color:#222221;fill-opacity:1;fill:url(#linearGradient4967)"
   id="stop157" />
			<stop
   offset="1"
   style="stop-color:#231F20;fill-opacity:1;fill:url(#linearGradient4967)"
   id="stop159" />
		</linearGradient>
		
		
			<linearGradient
   id="SVGID_00000036949629837760463840000001219747674259397543_"
   gradientUnits="userSpaceOnUse"
   x1="321.6041"
   y1="106.3976"
   x2="503.81369"
   y2="295.69312"
   style="fill-opacity:1;fill:url(#linearGradient4967)">
			<stop
   offset="0"
   style="stop-color:#0A6B37;fill-opacity:1;fill:url(#linearGradient4967)"
   id="stop164" />
			<stop
   offset="0.1426"
   style="stop-color:#125230;fill-opacity:1;fill:url(#linearGradient4967)"
   id="stop166" />
			<stop
   offset="0.3165"
   style="stop-color:#1A3C29;fill-opacity:1;fill:url(#linearGradient4967)"
   id="stop168" />
			<stop
   offset="0.505"
   style="stop-color:#1F2C24;fill-opacity:1;fill:url(#linearGradient4967)"
   id="stop170" />
			<stop
   offset="0.7167"
   style="stop-color:#222221;fill-opacity:1;fill:url(#linearGradient4967)"
   id="stop172" />
			<stop
   offset="1"
   style="stop-color:#231F20;fill-opacity:1;fill:url(#linearGradient4967)"
   id="stop174" />
		</linearGradient>
		
		
			<linearGradient
   id="SVGID_00000137845807884560163880000013217763610881624510_"
   gradientUnits="userSpaceOnUse"
   x1="321.6041"
   y1="106.3976"
   x2="503.81369"
   y2="295.69312"
   style="fill-opacity:1;fill:url(#linearGradient4967)">
			<stop
   offset="0"
   style="stop-color:#0A6B37;fill-opacity:1;fill:url(#linearGradient4967)"
   id="stop179" />
			<stop
   offset="0.1426"
   style="stop-color:#125230;fill-opacity:1;fill:url(#linearGradient4967)"
   id="stop181" />
			<stop
   offset="0.3165"
   style="stop-color:#1A3C29;fill-opacity:1;fill:url(#linearGradient4967)"
   id="stop183" />
			<stop
   offset="0.505"
   style="stop-color:#1F2C24;fill-opacity:1;fill:url(#linearGradient4967)"
   id="stop185" />
			<stop
   offset="0.7167"
   style="stop-color:#222221;fill-opacity:1;fill:url(#linearGradient4967)"
   id="stop187" />
			<stop
   offset="1"
   style="stop-color:#231F20;fill-opacity:1;fill:url(#linearGradient4967)"
   id="stop189" />
		</linearGradient>
		
	<g
   id="g2200"
   style="fill:url(#linearGradient2222)"
   transform="translate(-4.5013135,2.2506567)"><path
     style="fill:url(#linearGradient4969);fill-opacity:1;fill-rule:nonzero;stroke-width:0;stroke-dasharray:none"
     d="m 542.70581,103.75996 h 36.48467 v 24.1475 h -36.48467 v 37.38219 H 518.99077 V 127.90746 H 482.5061 v -24.1475 h 36.48467 V 66.609955 h 23.71504 z"
     id="path192" /><g
     id="g325"
     style="fill:url(#linearGradient1362);fill-opacity:1"
     transform="matrix(0.66738203,0,0,0.66738203,93.576664,56.129991)">
	<path
   class="st0"
   d="m 278.4,257.1 c 0.1,0.5 0.2,0.9 0.5,1.4 0.4,0.9 0.8,1.9 1.2,2.7"
   id="path305"
   style="fill:url(#linearGradient2202);fill-opacity:1;stroke-width:1.49839" />
	<path
   class="st0"
   d="m 336.7,294 h 0.6 z"
   id="path307"
   style="fill:url(#linearGradient2204);fill-opacity:1;stroke-width:1.49839" />
	<path
   class="st0"
   d="m 339,294 c -0.2,0 -0.5,0 -0.7,0 h 0.3 z"
   id="path309"
   style="fill:url(#linearGradient2206);fill-opacity:1;stroke-width:1.49839" />
	<path
   class="st0"
   d="m 338.6,294 h -0.3 c 0.2,0 0.5,0 0.7,0 z"
   id="path311"
   style="fill:url(#linearGradient2208);fill-opacity:1;stroke-width:1.49839" />
	<path
   class="st0"
   d="m 402.9,271.4 c -6.8,-22.4 -6.8,-46.4 0,-68.8 2.1,-7.7 5.2,-15.1 9,-22 0.5,-0.9 0.9,-1.8 1.4,-2.7 -18.7,-26.5 -49.2,-42.2 -81.6,-42.2 -4.9,0 -9.7,0.4 -14.5,1.1 -14.8,2.2 -29,7.7 -41.4,16.2 -1.2,0.7 -2.3,1.5 -3.4,2.3 -23.6,17.4 -38.6,44.2 -41,73.5 -0.3,2.7 -0.4,5.4 -0.4,8.1 v 0 c -0.1,52.8 40.4,96.7 93,101 0.8,0.1 1.7,0.2 2.5,0.2 1.7,0 3.5,0 5.2,0 32.5,0 62.9,-15.8 81.7,-42.3 -4.4,-7.8 -7.9,-15.9 -10.5,-24.4 z m -71.3,24.5 c -32.5,0.2 -59,-26 -59.2,-58.5 -0.2,-32.5 26,-59 58.5,-59.2 32.5,-0.2 59,26 59.2,58.5 0,0.1 0,0.2 0,0.3 0.1,32.5 -26.1,58.8 -58.5,58.9 0,0 0,0 0,0 z"
   id="path313"
   style="fill:url(#linearGradient2210);fill-opacity:1;stroke-width:1.49839" />
	<ellipse
   class="st0"
   cx="54.200001"
   cy="168.7"
   rx="36.599998"
   ry="36.799999"
   id="ellipse315"
   style="fill:url(#linearGradient2212);fill-opacity:1;stroke-width:1.49839" />
	<path
   class="st0"
   d="m 202.3,131.9 v 68.6 c -58.3,18.7 -100.2,69.7 -100.2,129.6 0,1 0,2 0,3 H 31.8 c 0.9,-99.2 73.8,-181.6 170.5,-201.2 z"
   id="path317"
   style="fill:url(#linearGradient2214);fill-opacity:1;stroke-width:1.49839" />
	<path
   class="st0"
   d="m 619.7,221.4 c 0.2,2.3 -0.5,4.5 -2.1,6.2 -1.5,1.6 -3.6,2.6 -5.8,2.7 -8.3,0.2 -16.5,0.3 -24.8,0.4 -3.8,0.1 -7.1,-2.4 -8,-6.1 -6.6,-31.4 -36.1,-52.5 -66,-48.2 -22.6,3.2 -51.9,31.1 -49.4,64.1 0.2,2.4 2.9,32.4 27.9,44.6 9.9,4.6 21,5.9 31.6,3.5 3,-1.5 6.6,-1.3 9.5,0.6 0.8,0.8 1.5,1.7 2,2.7 0.4,1 0.7,2.1 0.7,3.2 v 30.7 c -0.1,4 -3.1,7.4 -7,7.9 -8.6,1 -17.4,0.8 -26,-0.7 -5,-0.8 -9.9,-2.1 -14.6,-3.7 -2.2,-0.7 -4.3,-1.6 -6.4,-2.5 -1,-0.4 -2,-0.8 -3,-1.3 -1.5,-0.6 -3,-1.3 -4.4,-2.1 -0.6,-0.2 -1.1,-0.4 -1.5,-0.8 -1.2,-0.6 -2.4,-1.3 -3.6,-2.1 -1.5,-0.8 -2.9,-1.7 -4.3,-2.7 -4.2,-2.9 -8.2,-6 -11.9,-9.4 -2.6,-2.5 -5.1,-5.2 -7.3,-8.1 -1.2,-1.4 -2.4,-2.7 -3.5,-4.3 0,0 0,0.2 -0.2,0.3 -1.9,-2.3 -3.6,-4.6 -5.2,-7.1 -3.1,-4.6 -5.8,-9.5 -8,-14.6 -1.4,-3 -2.6,-6.1 -3.6,-9.3 -2.2,-6.1 -3.7,-12.5 -4.5,-18.9 -1.9,-14.9 -0.5,-30.1 4.2,-44.5 1.1,-3.4 2.4,-6.8 3.9,-10.1 1.7,-3.8 3.7,-7.6 5.9,-11.2 2,-3.3 4.2,-6.5 6.6,-9.6 v 0 c 0.3,-0.5 0.6,-1 1,-1.4 0.6,-1 1.3,-1.9 2.1,-2.7 18.3,-22.7 45.9,-35.9 75,-35.9 11.5,0.1 22.8,2.2 33.5,6.5 1.7,0.5 3.3,1.2 4.9,1.9 23.3,9.3 42.3,26.9 53.2,49.4 5,10.1 8.1,21.2 9.1,32.6 z"
   id="path319"
   style="fill:url(#linearGradient2216);fill-opacity:1;stroke-width:1.49839" />
	<path
   class="st0"
   d="m 272.5,18.9 v 109.3 c 0,2.4 -1.3,4.6 -3.3,5.9 -10.9,6.8 -20.7,15.1 -29.1,24.8 -2.5,2.8 -6.9,3.1 -9.7,0.6 -1.5,-1.3 -2.3,-3.2 -2.3,-5.2 l -0.9,-70.8 c 0.2,-7.2 0,-9.8 -6.9,-6.9 -2.5,1.3 -6,3.1 -10.1,5.2 -6.2,3.1 -8.1,4 -10.8,3.6 -2.6,-0.2 -5,-1.8 -6.3,-4.1 -0.9,-2.5 -0.5,-5.3 1.1,-7.5 l 41,-61.5 0.4,-0.4 h 29.9 c 3.9,0.1 7,3.2 7,7 z"
   id="path321"
   style="fill:url(#linearGradient2218);fill-opacity:1;stroke-width:1.49839" />
	<path
   class="st0"
   d="m 622.4,255.4 v 74.8 c 0,3.9 -3.2,7.1 -7.1,7.1 0,0 0,0 0,0 h -30.7 c -3.9,0 -7.1,-3.2 -7.1,-7.1 0,0 0,0 0,0 v -15.1 c -5.7,4.2 -11.8,7.9 -18.1,11 -3.7,1.9 -8.3,0.4 -10.2,-3.3 -0.5,-1.1 -0.8,-2.2 -0.8,-3.4 v -32.9 c 0.1,-2.5 1.4,-4.9 3.4,-6.3 10.8,-7.8 18.9,-21.9 22.9,-29.7 1.8,-3.5 5.5,-5.8 9.4,-5.8 h 27.4 c 6.1,0 10.9,4.8 10.9,10.7 z"
   id="path323"
   style="fill:url(#linearGradient2220);fill-opacity:1;stroke-width:1.49839" />
</g></g></g>
	
</g>
</svg>
