<?xml version="1.0" encoding="UTF-8" standalone="no"?>
<svg
   viewBox="0 0 8.995833 11.244792375"
   version="1.1"
   x="0px"
   y="0px"
   id="svg140"
   sodipodi:docname="Top Icon 5696049.svg"
   inkscape:version="1.2 (dc2aeda, 2022-05-15)"
   xmlns:inkscape="http://www.inkscape.org/namespaces/inkscape"
   xmlns:sodipodi="http://sodipodi.sourceforge.net/DTD/sodipodi-0.dtd"
   xmlns="http://www.w3.org/2000/svg"
   xmlns:svg="http://www.w3.org/2000/svg">
  <defs
     id="defs144" />
  <sodipodi:namedview
     id="namedview142"
     pagecolor="#ffffff"
     bordercolor="#000000"
     borderopacity="0.25"
     inkscape:showpageshadow="false"
     inkscape:pageopacity="0.0"
     inkscape:pagecheckerboard="0"
     inkscape:deskcolor="#d1d1d1"
     showgrid="false"
     showborder="false"
     borderlayer="false"
     inkscape:zoom="53.339224"
     inkscape:cx="4.0214309"
     inkscape:cy="5.6431267"
     inkscape:window-width="1440"
     inkscape:window-height="900"
     inkscape:window-x="0"
     inkscape:window-y="0"
     inkscape:window-maximized="0"
     inkscape:current-layer="svg140" />
  <g
     id="g134"
     transform="translate(-0.05624379,1.8185491)"
     style="fill:#ffffff">
    <path
       style="color:#000000;paint-order:fill markers stroke;fill:#ffffff"
       d="m 4.4968827,0.79374993 c -2.042613,0 -3.70313306,1.66258537 -3.70313306,3.70520017 0,2.0426149 1.66052006,3.7031333 3.70313306,3.7031333 2.042615,0 3.705201,-1.6605184 3.705201,-3.7031333 0,-2.0426148 -1.662586,-3.70520017 -3.705201,-3.70520017 z m -0.02325,1.55597737 a 0.26460996,0.26460996 0 0 1 0.21084,0.076998 l 1.781287,1.7812866 a 0.2645835,0.2645835 0 0 1 0,0.3731039 0.2645835,0.2645835 0 0 1 -0.375171,0 L 4.7624997,3.2545816 v 3.129008 A 0.2645835,0.2645835 0 0 1 4.4968827,6.6471394 0.2645835,0.2645835 0 0 1 4.2333337,6.3835896 v -3.131075 l -1.328085,1.3286011 a 0.2645835,0.2645835 0 0 1 -0.375171,0 0.2645835,0.2645835 0 0 1 0,-0.3731039 l 1.77922,-1.7812866 a 0.26460996,0.26460996 0 0 1 0.164331,-0.076998 z"
       fill="#000000"
       fill-rule="evenodd"
       stroke-linecap="round"
       stroke-linejoin="round"
       id="path132" />
  </g>
  <text
     x="0"
     y="23.9958339"
     fill="#000000"
     font-size="5px"
     font-weight="bold"
     font-family="'Helvetica Neue', Helvetica, Arial-Unicode, Arial, Sans-serif"
     id="text136">Created by Larea</text>
  <text
     x="0"
     y="28.9958339"
     fill="#000000"
     font-size="5px"
     font-weight="bold"
     font-family="'Helvetica Neue', Helvetica, Arial-Unicode, Arial, Sans-serif"
     id="text138">from the Noun Project</text>
</svg>
