<?xml version="1.0" encoding="UTF-8" standalone="no"?>
<svg
   height="100%"
   style="fill-rule:evenodd;clip-rule:evenodd;stroke-linejoin:round;stroke-miterlimit:2;"
   version="1.1"
   viewBox="0 0 512 512"
   width="100%"
   xml:space="preserve"
   id="svg1"
   sodipodi:docname="white_youtube.svg"
   inkscape:version="1.3.2 (091e20e, 2023-11-25, custom)"
   xmlns:inkscape="http://www.inkscape.org/namespaces/inkscape"
   xmlns:sodipodi="http://sodipodi.sourceforge.net/DTD/sodipodi-0.dtd"
   xmlns="http://www.w3.org/2000/svg"
   xmlns:svg="http://www.w3.org/2000/svg"><defs
     id="defs1" /><sodipodi:namedview
     id="namedview1"
     pagecolor="#505050"
     bordercolor="#eeeeee"
     borderopacity="1"
     inkscape:showpageshadow="0"
     inkscape:pageopacity="0"
     inkscape:pagecheckerboard="0"
     inkscape:deskcolor="#505050"
     inkscape:zoom="1.5371094"
     inkscape:cx="255.67471"
     inkscape:cy="256"
     inkscape:window-width="1920"
     inkscape:window-height="1001"
     inkscape:window-x="-9"
     inkscape:window-y="-9"
     inkscape:window-maximized="1"
     inkscape:current-layer="svg1" /><path
     d="M256,0c141.29,0 256,114.71 256,256c0,141.29 -114.71,256 -256,256c-141.29,0 -256,-114.71 -256,-256c0,-141.29 114.71,-256 256,-256Zm153.315,178.978c-3.68,-13.769 -14.522,-24.61 -28.29,-28.29c-24.958,-6.688 -125.025,-6.688 -125.025,-6.688c0,0 -100.067,0 -125.025,6.688c-13.765,3.68 -24.61,14.521 -28.29,28.29c-6.685,24.955 -6.685,77.024 -6.685,77.024c0,0 0,52.067 6.685,77.02c3.68,13.769 14.525,24.614 28.29,28.293c24.958,6.685 125.025,6.685 125.025,6.685c0,0 100.067,0 125.025,-6.685c13.768,-3.679 24.61,-14.524 28.29,-28.293c6.685,-24.953 6.685,-77.02 6.685,-77.02c0,0 0,-52.069 -6.685,-77.024Zm-185.316,125.025l0,-96.002l83.137,48.001l-83.137,48.001Z"
     id="path1"
     style="fill:#ffffff;fill-opacity:0" /><path
     style="fill:#000000;fill-opacity:1;stroke-width:175.661"
     d="m 228.67598,367.50112 c -44.81363,-0.83821 -81.44457,-3.09658 -94.63974,-5.83474 -14.36273,-2.98044 -26.12844,-13.61196 -30.54195,-27.59777 -9.20494,-29.16923 -9.20494,-126.96799 0,-156.13722 4.14563,-13.13694 15.02911,-23.60667 28.08422,-27.01657 15.19371,-3.96849 61.81139,-6.34628 124.42149,-6.34628 62.6101,0 109.22778,2.37779 124.42149,6.34628 12.48216,3.26025 23.06582,13.01699 27.56457,25.41092 9.85685,27.15532 9.85685,132.1932 0,159.34853 -4.76534,13.12835 -16.40152,23.20648 -30.02231,26.00237 -10.18905,2.09148 -32.10225,3.82706 -61.78586,4.89358 -19.42819,0.69805 -70.75651,1.24411 -87.50191,0.9309 z M 266.5642,279.86825 C 289.01288,266.91962 307.37908,256.17891 307.37796,256 c -0.002,-0.35908 -80.94385,-47.14992 -82.76805,-47.84667 -1.07796,-0.41173 -1.1385,2.13232 -1.1385,47.84667 0,45.71446 0.0605,48.25838 1.1385,47.84637 0.62618,-0.23933 19.50561,-11.02948 41.95429,-23.97812 z"
     id="path2" /><path
     style="fill:#ffffff;fill-opacity:0;stroke-width:175.661"
     d="M 240.06099,511.26956 C 195.0022,507.66366 156.72258,495.31289 120.68107,472.7521 45.863043,425.91851 0.3252859,343.90829 0.3252859,256 c 0,-44.29164 12.0222651,-89.30598 33.9685751,-127.18679 C 88.94894,34.474876 195.63437,-14.958244 302.40997,4.5805407 334.96577,10.537901 368.70178,24.099721 396.19822,42.283258 487.07944,102.38348 530.05079,211.75443 504.17946,317.11778 483.158,402.7296 418.57224,472.09906 334.62478,499.23093 c -16.30332,5.26925 -32.34305,8.74737 -49.99962,10.8421 -8.36895,0.99288 -37.37667,1.77172 -44.56417,1.19653 z M 287.55273,367.8892 c 51.79931,-1.07986 80.48146,-2.9813 93.03177,-6.16743 9.05622,-2.29909 17.34612,-7.9827 22.80867,-15.63779 5.11295,-7.16516 7.58995,-15.47544 9.68959,-32.50838 2.15519,-17.48351 2.61843,-27.6695 2.61843,-57.5756 0,-30.05463 -0.46627,-40.22669 -2.65408,-57.90089 -2.08601,-16.85188 -4.53165,-25.00484 -9.65394,-32.18309 -5.46194,-7.65423 -13.74881,-13.33619 -22.80867,-15.63898 -29.67343,-7.54223 -183.85701,-8.80258 -237.78399,-1.94372 -9.40235,1.19586 -14.18837,2.41744 -19.39175,4.9495 -8.23001,4.00488 -15.88773,12.16435 -19.28158,20.54497 -2.92683,7.22739 -5.221889,21.04165 -7.004651,42.16204 -1.104079,13.08003 -1.104079,66.94031 0,80.02034 1.782762,21.12039 4.077821,34.93465 7.004651,42.16204 4.16984,10.29683 14.11125,19.4779 24.68603,22.798 11.88717,3.73215 51.92669,6.50298 103.11563,7.13586 6.61957,0.0818 14.96315,0.20995 18.5413,0.28468 3.57814,0.0747 20.26531,-0.15096 37.08259,-0.50155 z"
     id="path3" /><path
     style="fill:#ffffff;fill-opacity:0;stroke-width:175.661"
     d="m 224.12198,256 v -47.51806 l 3.1309,1.80223 c 58.46488,33.65399 78.79858,45.45084 78.79833,45.71583 -2.4e-4,0.2547 -33.47233,19.67534 -78.79266,45.71583 l -3.13657,1.80223 z"
     id="path4" /><path
     style="fill:#ffffff;fill-opacity:0;stroke-width:175.661"
     d="m 224.12198,256 v -47.51806 l 3.1309,1.80223 c 58.46488,33.65399 78.79858,45.45084 78.79833,45.71583 -2.4e-4,0.2547 -33.47233,19.67534 -78.79266,45.71583 l -3.13657,1.80223 z"
     id="path5" /><path
     style="fill:#ffffff;fill-opacity:0;stroke-width:175.661"
     d="M 240.06099,511.26956 C 195.0022,507.66366 156.72258,495.31289 120.68107,472.7521 45.863043,425.91851 0.3252859,343.90829 0.3252859,256 c 0,-44.29164 12.0222651,-89.30598 33.9685751,-127.18679 C 88.94894,34.474876 195.63437,-14.958244 302.40997,4.5805407 334.96577,10.537901 368.70178,24.099721 396.19822,42.283258 487.07944,102.38348 530.05079,211.75443 504.17946,317.11778 483.158,402.7296 418.57224,472.09906 334.62478,499.23093 c -16.30332,5.26925 -32.34305,8.74737 -49.99962,10.8421 -8.36895,0.99288 -37.37667,1.77172 -44.56417,1.19653 z M 287.55273,367.8892 c 51.79931,-1.07986 80.48146,-2.9813 93.03177,-6.16743 9.05622,-2.29909 17.34612,-7.9827 22.80867,-15.63779 5.11295,-7.16516 7.58995,-15.47544 9.68959,-32.50838 2.15519,-17.48351 2.61843,-27.6695 2.61843,-57.5756 0,-30.05463 -0.46627,-40.22669 -2.65408,-57.90089 -2.08601,-16.85188 -4.53165,-25.00484 -9.65394,-32.18309 -5.46194,-7.65423 -13.74881,-13.33619 -22.80867,-15.63898 -29.67343,-7.54223 -183.85701,-8.80258 -237.78399,-1.94372 -9.40235,1.19586 -14.18837,2.41744 -19.39175,4.9495 -8.23001,4.00488 -15.88773,12.16435 -19.28158,20.54497 -2.92683,7.22739 -5.221889,21.04165 -7.004651,42.16204 -1.104079,13.08003 -1.104079,66.94031 0,80.02034 1.782762,21.12039 4.077821,34.93465 7.004651,42.16204 4.16984,10.29683 14.11125,19.4779 24.68603,22.798 11.88717,3.73215 51.92669,6.50298 103.11563,7.13586 6.61957,0.0818 14.96315,0.20995 18.5413,0.28468 3.57814,0.0747 20.26531,-0.15096 37.08259,-0.50155 z"
     id="path6" /><path
     style="fill:#ffffff;fill-opacity:0;stroke-width:175.661"
     d="M 240.06099,511.26956 C 195.0022,507.66366 156.72258,495.31289 120.68107,472.7521 45.863043,425.91851 0.3252859,343.90829 0.3252859,256 c 0,-44.29164 12.0222651,-89.30598 33.9685751,-127.18679 C 88.94894,34.474876 195.63437,-14.958244 302.40997,4.5805407 334.96577,10.537901 368.70178,24.099721 396.19822,42.283258 487.07944,102.38348 530.05079,211.75443 504.17946,317.11778 483.158,402.7296 418.57224,472.09906 334.62478,499.23093 c -16.30332,5.26925 -32.34305,8.74737 -49.99962,10.8421 -8.36895,0.99288 -37.37667,1.77172 -44.56417,1.19653 z M 287.55273,367.8892 c 51.79931,-1.07986 80.48146,-2.9813 93.03177,-6.16743 9.05622,-2.29909 17.34612,-7.9827 22.80867,-15.63779 5.11295,-7.16516 7.58995,-15.47544 9.68959,-32.50838 2.15519,-17.48351 2.61843,-27.6695 2.61843,-57.5756 0,-30.05463 -0.46627,-40.22669 -2.65408,-57.90089 -2.08601,-16.85188 -4.53165,-25.00484 -9.65394,-32.18309 -5.46194,-7.65423 -13.74881,-13.33619 -22.80867,-15.63898 -29.67343,-7.54223 -183.85701,-8.80258 -237.78399,-1.94372 -9.40235,1.19586 -14.18837,2.41744 -19.39175,4.9495 -8.23001,4.00488 -15.88773,12.16435 -19.28158,20.54497 -2.92683,7.22739 -5.221889,21.04165 -7.004651,42.16204 -1.104079,13.08003 -1.104079,66.94031 0,80.02034 1.782762,21.12039 4.077821,34.93465 7.004651,42.16204 4.16984,10.29683 14.11125,19.4779 24.68603,22.798 11.88717,3.73215 51.92669,6.50298 103.11563,7.13586 6.61957,0.0818 14.96315,0.20995 18.5413,0.28468 3.57814,0.0747 20.26531,-0.15096 37.08259,-0.50155 z"
     id="path7" /><path
     style="fill:#000000;fill-opacity:1;stroke-width:175.661"
     d="m 202.65311,366.5905 c -44.11159,-1.68469 -66.8931,-3.94043 -75.62364,-7.48797 -11.42694,-4.64318 -20.36066,-14.98791 -23.87583,-27.64683 -4.452519,-16.03456 -6.918608,-55.42293 -5.834192,-93.18378 1.045075,-36.39095 3.849312,-56.24628 9.448812,-66.90215 4.55506,-8.66831 13.93292,-16.70746 22.61939,-19.39044 12.17081,-3.75917 35.35412,-5.47227 90.33796,-6.6754 51.30397,-1.1226 110.27227,0.1572 140.71419,3.05394 21.30193,2.02702 28.77782,4.6856 37.39813,13.29955 8.04882,8.04288 11.17259,15.50313 13.62448,32.53826 2.52084,17.51412 2.95182,26.53796 2.95182,61.80432 0,35.26636 -0.43098,44.2902 -2.95182,61.80432 -2.23494,15.52781 -5.28963,23.5373 -11.73454,30.76832 -4.0669,4.56296 -11.09894,9.27817 -16.75177,11.23261 -7.72989,2.67258 -26.23942,4.62173 -58.34078,6.14359 -19.03348,0.90234 -103.51999,1.34676 -121.98221,0.64166 z m 45.69617,-75.84556 c 42.15238,-24.19354 59.10762,-34.23448 58.89349,-34.87687 -0.20982,-0.62947 -30.34761,-18.30965 -65.05087,-38.16177 -9.56244,-5.47023 -17.68645,-9.76032 -18.05337,-9.53356 -0.76135,0.47054 -0.97178,94.79748 -0.21317,95.55609 0.66714,0.66715 0.29557,0.86468 24.42392,-12.98389 z"
     id="path8" /></svg>
