<?xml version="1.0" encoding="UTF-8" standalone="no"?>
<svg
   height="100%"
   style="fill-rule:evenodd;clip-rule:evenodd;stroke-linejoin:round;stroke-miterlimit:2;"
   version="1.1"
   viewBox="0 0 512 512"
   width="100%"
   xml:space="preserve"
   id="svg1"
   sodipodi:docname="white_whatsapp.svg"
   inkscape:version="1.3.2 (091e20e, 2023-11-25, custom)"
   xmlns:inkscape="http://www.inkscape.org/namespaces/inkscape"
   xmlns:sodipodi="http://sodipodi.sourceforge.net/DTD/sodipodi-0.dtd"
   xmlns="http://www.w3.org/2000/svg"
   xmlns:svg="http://www.w3.org/2000/svg"><defs
     id="defs1" /><sodipodi:namedview
     id="namedview1"
     pagecolor="#505050"
     bordercolor="#eeeeee"
     borderopacity="1"
     inkscape:showpageshadow="0"
     inkscape:pageopacity="0"
     inkscape:pagecheckerboard="0"
     inkscape:deskcolor="#505050"
     inkscape:zoom="1.5371094"
     inkscape:cx="255.67471"
     inkscape:cy="256"
     inkscape:window-width="1920"
     inkscape:window-height="1001"
     inkscape:window-x="-9"
     inkscape:window-y="-9"
     inkscape:window-maximized="1"
     inkscape:current-layer="svg1" /><path
     d="M256,0c141.29,0 256,114.71 256,256c0,141.29 -114.71,256 -256,256c-141.29,0 -256,-114.71 -256,-256c0,-141.29 114.71,-256 256,-256Zm121.527,134.844c-30.646,-30.672 -71.401,-47.571 -114.822,-47.588c-89.468,0 -162.284,72.788 -162.319,162.256c-0.012,28.599 7.462,56.516 21.666,81.122l-23.028,84.086l86.048,-22.564c23.708,12.927 50.401,19.739 77.568,19.751l0.067,0c89.459,0 162.281,-72.797 162.317,-162.266c0.017,-43.358 -16.851,-84.127 -47.497,-114.797Zm-114.821,249.657l-0.054,0c-24.209,-0.01 -47.953,-6.511 -68.667,-18.799l-4.927,-2.924l-51.061,13.391l13.629,-49.769l-3.208,-5.102c-13.505,-21.473 -20.637,-46.293 -20.627,-71.776c0.03,-74.362 60.552,-134.861 134.969,-134.861c36.035,0.014 69.908,14.062 95.38,39.554c25.472,25.493 39.492,59.379 39.478,95.416c-0.03,74.367 -60.551,134.869 -134.912,134.87Zm74.003,-101.01c-4.056,-2.029 -23.996,-11.838 -27.715,-13.191c-3.717,-1.353 -6.42,-2.03 -9.124,2.029c-2.704,4.059 -10.477,13.192 -12.843,15.898c-2.365,2.705 -4.731,3.045 -8.787,1.014c-4.056,-2.028 -17.124,-6.31 -32.615,-20.124c-12.057,-10.75 -20.197,-24.029 -22.563,-28.087c-2.365,-4.059 -0.252,-6.253 1.779,-8.275c1.824,-1.816 4.055,-4.735 6.083,-7.103c2.028,-2.368 2.704,-4.059 4.056,-6.764c1.352,-2.707 0.676,-5.074 -0.338,-7.104c-1.014,-2.029 -9.125,-21.986 -12.505,-30.104c-3.291,-7.906 -6.635,-6.836 -9.125,-6.96c-2.363,-0.118 -5.069,-0.143 -7.773,-0.143c-2.704,0 -7.097,1.015 -10.816,5.074c-3.717,4.059 -14.194,13.868 -14.194,33.824c0,19.957 14.533,39.236 16.561,41.943c2.028,2.706 28.599,43.659 69.284,61.221c9.676,4.177 17.231,6.672 23.121,8.541c9.716,3.085 18.557,2.65 25.546,1.606c7.792,-1.164 23.996,-9.809 27.375,-19.279c3.379,-9.471 3.379,-17.589 2.366,-19.28c-1.014,-1.691 -3.718,-2.706 -7.773,-4.736Z"
     id="path1"
     style="fill:#ffffff;fill-opacity:0" /><path
     style="fill:#ffffff;fill-opacity:0;stroke-width:175.661"
     d="m 99.893932,413.31957 c 0.01714,-0.47138 5.081948,-19.24014 11.255128,-41.70834 l 11.22396,-40.8513 -4.62589,-9.24273 c -25.141929,-50.23468 -22.223836,-109.99994 7.69692,-157.64009 32.11963,-51.14124 90.56697,-80.764454 149.5486,-75.796616 58.02299,4.887095 107.76467,38.625006 132.95177,90.176176 7.7729,15.90903 12.30183,30.15848 15.04152,47.32538 1.66854,10.45506 1.65919,37.40538 -0.0166,47.98339 -2.67428,16.88026 -7.21325,31.11027 -15.04478,47.16645 -7.84398,16.08173 -18.13041,30.47527 -30.91817,43.26303 -48.82432,48.82432 -122.27191,61.3158 -184.72026,31.416 l -7.43946,-3.56195 -6.22255,1.65289 c -3.4224,0.9091 -22.03145,5.78468 -41.35343,10.83462 -19.32198,5.04995 -35.6432,9.32987 -36.26938,9.51093 -0.68172,0.19713 -1.125997,-0.0147 -1.107338,-0.52784 z M 275.89209,384.11181 c 25.64953,-2.53153 50.77905,-12.75409 71.44159,-29.06205 6.73595,-5.31637 17.59756,-16.52278 22.87972,-23.60603 14.00501,-18.78039 22.02972,-37.49139 26.09018,-60.83381 1.61205,-9.26718 1.62903,-32.49301 0.0307,-41.9912 -4.91514,-29.20869 -17.68673,-54.23067 -38.1771,-74.79627 -33.45458,-33.57739 -83.05221,-47.05985 -129.1916,-35.11904 -38.48278,9.95929 -70.40194,36.10064 -87.80874,71.91412 -9.36091,19.25953 -13.40559,37.03434 -13.39749,58.87675 0.01,26.29399 6.48039,49.2217 20.2882,71.88819 l 3.17048,5.20457 -6.44114,23.58075 c -3.54263,12.96943 -6.63999,24.20725 -6.88301,24.97296 -0.39966,1.25922 -0.26411,1.34988 1.41916,0.94912 1.02357,-0.24369 12.59297,-3.24852 25.70979,-6.67739 l 23.84876,-6.23431 5.85269,3.34924 c 24.87614,14.23552 53.11459,20.35317 81.1678,17.5844 z"
     id="path2" /><path
     style="fill:#000000;fill-opacity:1;stroke-width:175.661"
     d="m 99.893932,413.31957 c 0.01714,-0.47138 5.081948,-19.24014 11.255128,-41.70834 l 11.22396,-40.8513 -4.62589,-9.24273 c -25.141929,-50.23468 -22.223836,-109.99994 7.69692,-157.64009 32.11963,-51.14124 90.56697,-80.764454 149.5486,-75.796616 58.02299,4.887095 107.76467,38.625006 132.95177,90.176176 7.7729,15.90903 12.30183,30.15848 15.04152,47.32538 1.66854,10.45506 1.65919,37.40538 -0.0166,47.98339 -2.67428,16.88026 -7.21325,31.11027 -15.04478,47.16645 -7.84398,16.08173 -18.13041,30.47527 -30.91817,43.26303 -48.82432,48.82432 -122.27191,61.3158 -184.72026,31.416 l -7.43946,-3.56195 -6.22255,1.65289 c -3.4224,0.9091 -22.03145,5.78468 -41.35343,10.83462 -19.32198,5.04995 -35.6432,9.32987 -36.26938,9.51093 -0.68172,0.19713 -1.125997,-0.0147 -1.107338,-0.52784 z M 275.89209,384.11181 c 25.64953,-2.53153 50.77905,-12.75409 71.44159,-29.06205 6.73595,-5.31637 17.59756,-16.52278 22.87972,-23.60603 14.00501,-18.78039 22.02972,-37.49139 26.09018,-60.83381 1.61205,-9.26718 1.62903,-32.49301 0.0307,-41.9912 -4.91514,-29.20869 -17.68673,-54.23067 -38.1771,-74.79627 -33.45458,-33.57739 -83.05221,-47.05985 -129.1916,-35.11904 -38.48278,9.95929 -70.40194,36.10064 -87.80874,71.91412 -9.36091,19.25953 -13.40559,37.03434 -13.39749,58.87675 0.01,26.29399 6.48039,49.2217 20.2882,71.88819 l 3.17048,5.20457 -6.44114,23.58075 c -3.54263,12.96943 -6.63999,24.20725 -6.88301,24.97296 -0.39966,1.25922 -0.26411,1.34988 1.41916,0.94912 1.02357,-0.24369 12.59297,-3.24852 25.70979,-6.67739 l 23.84876,-6.23431 5.85269,3.34924 c 24.87614,14.23552 53.11459,20.35317 81.1678,17.5844 z"
     id="path3" /><path
     style="fill:#000000;fill-opacity:1;stroke-width:175.661"
     d="m 300.23888,326.85481 c -12.18121,-0.84325 -37.52683,-10.80133 -52.37103,-20.57615 -28.1809,-18.55696 -59.06144,-56.22726 -65.48203,-79.87968 -2.07522,-7.64479 -2.07559,-19.63345 -8.1e-4,-26.34815 1.95438,-6.32505 4.91299,-11.56734 9.78094,-17.3306 5.54184,-6.5611 8.13196,-7.7302 16.99288,-7.67005 3.97594,0.027 7.43427,0.37188 8.27438,0.82518 0.79386,0.42835 2.15419,2.01765 3.02296,3.53178 2.58097,4.49821 14.72553,34.60156 14.72553,36.50092 0,2.80321 -2.75089,7.45828 -8.0738,13.66251 -2.72453,3.17564 -5.12353,6.45057 -5.33111,7.27764 -0.52431,2.08901 2.55831,7.64382 9.01138,16.23833 10.84837,14.44837 22.53346,24.22275 38.51184,32.21448 11.15386,5.57871 12.90907,6.11993 15.59832,4.80977 1.76783,-0.86126 10.86532,-11.26909 14.86303,-17.0038 2.2511,-3.22921 3.86767,-3.85213 7.48564,-2.88447 3.92522,1.04983 35.32028,16.42192 36.50711,17.87511 0.68329,0.83665 0.81684,2.48642 0.54929,6.78596 -0.67631,10.86882 -3.9046,17.30527 -11.53593,22.99987 -3.84998,2.87291 -10.49867,6.39899 -14.53264,7.70727 -3.54682,1.15028 -11.5346,1.71137 -17.99595,1.26408 z"
     id="path4" /></svg>
