<?xml version="1.0" encoding="UTF-8" standalone="no"?>
<svg
   height="100%"
   style="fill-rule:evenodd;clip-rule:evenodd;stroke-linejoin:round;stroke-miterlimit:2;"
   version="1.1"
   viewBox="0 0 512 512"
   width="100%"
   xml:space="preserve"
   id="svg134"
   sodipodi:docname="white_instagram.svg"
   inkscape:version="1.3.2 (091e20e, 2023-11-25, custom)"
   xmlns:inkscape="http://www.inkscape.org/namespaces/inkscape"
   xmlns:sodipodi="http://sodipodi.sourceforge.net/DTD/sodipodi-0.dtd"
   xmlns="http://www.w3.org/2000/svg"
   xmlns:svg="http://www.w3.org/2000/svg"><defs
     id="defs138" /><sodipodi:namedview
     id="namedview136"
     pagecolor="#ffffff"
     bordercolor="#000000"
     borderopacity="0.25"
     inkscape:showpageshadow="2"
     inkscape:pageopacity="0.0"
     inkscape:pagecheckerboard="0"
     inkscape:deskcolor="#d1d1d1"
     showgrid="false"
     inkscape:zoom="0.4191385"
     inkscape:cx="238.58462"
     inkscape:cy="263.63601"
     inkscape:window-width="1920"
     inkscape:window-height="1001"
     inkscape:window-x="-9"
     inkscape:window-y="-9"
     inkscape:window-maximized="1"
     inkscape:current-layer="svg134" /><path
     d="m 256,11.929229 c 128.12219,0 232.14149,106.692021 232.14149,238.106161 0,131.41413 -104.0193,238.10615 -232.14149,238.10615 -128.12218,0 -232.141537,-106.69202 -232.141537,-238.10615 C 23.858463,118.62125 127.87782,11.929229 256,11.929229 Z m 0,89.289811 c -39.40331,0 -44.34448,0.17114 -59.81997,0.89569 -15.44286,0.72269 -25.98988,3.23861 -35.21932,6.91717 -9.54047,3.80319 -17.63188,8.89178 -25.69789,17.16503 -8.06601,8.27326 -13.02713,16.57256 -16.73505,26.35817 -3.5864,9.46565 -6.0384,20.28367 -6.74389,36.12331 -0.70549,15.87312 -0.87234,20.94125 -0.87234,61.35698 0,40.41573 0.16685,45.48385 0.87234,61.35698 0.70549,15.83964 3.15749,26.65765 6.74389,36.1233 3.70792,9.78561 8.66904,18.08491 16.73505,26.3591 8.06601,8.27326 16.15742,13.36185 25.69789,17.16503 9.22944,3.67763 19.77646,6.19355 35.21932,6.91624 15.47549,0.72455 20.41666,0.89569 59.81997,0.89569 39.4033,0 44.34447,-0.17114 59.81997,-0.89569 15.44285,-0.72269 25.98988,-3.23861 35.21842,-6.91624 9.5405,-3.80318 17.6319,-8.89177 25.6988,-17.16503 8.066,-8.27419 13.0271,-16.57349 16.735,-26.3591 3.5855,-9.46565 6.0384,-20.28366 6.743,-36.1233 0.7064,-15.87313 0.8733,-20.94125 0.8733,-61.35698 0,-40.41573 -0.1669,-45.48386 -0.8733,-61.35698 -0.7046,-15.83964 -3.1575,-26.65766 -6.743,-36.12331 -3.7079,-9.78561 -8.669,-18.08491 -16.735,-26.35817 -8.0669,-8.27325 -16.1583,-13.36184 -25.6988,-17.16503 -9.22854,-3.67856 -19.77557,-6.19448 -35.21842,-6.91717 C 300.34447,101.39018 295.4033,101.21904 256,101.21904 Z m 0,26.81392 c 38.74043,0 43.32885,0.1516 58.62843,0.86778 14.14613,0.66223 21.82765,3.08608 26.94021,5.12393 6.77295,2.69916 11.60615,5.92475 16.68245,11.1324 5.0781,5.20671 8.222,10.16508 10.8535,17.11109 1.9868,5.24391 4.3509,13.12281 4.9956,27.6324 0.6982,15.69269 0.846,20.399 0.846,60.13483 0,39.73582 -0.1478,44.44214 -0.846,60.13482 -0.6447,14.5096 -3.0088,22.38849 -4.9956,27.63241 -2.6315,6.94693 -5.7754,11.90437 -10.8535,17.11109 -5.0763,5.20857 -9.9095,8.43323 -16.68245,11.13239 -5.11256,2.03785 -12.79408,4.46263 -26.94021,5.12393 -15.29686,0.71618 -19.88528,0.86779 -58.62843,0.86779 -38.74316,0 -43.33067,-0.15161 -58.62844,-0.86779 -14.14612,-0.6613 -21.82765,-3.08608 -26.9402,-5.12393 -6.77291,-2.69916 -11.60617,-5.92382 -16.68336,-11.13239 -5.07719,-5.20672 -8.22108,-10.16416 -10.85262,-17.11109 -1.9868,-5.24392 -4.35084,-13.12281 -4.99648,-27.63241 -0.69824,-15.69268 -0.84514,-20.399 -0.84514,-60.13482 0,-39.73583 0.1469,-44.44214 0.84514,-60.13483 0.64564,-14.50959 3.00968,-22.38849 4.99648,-27.6324 2.63154,-6.94601 5.77543,-11.90438 10.85262,-17.11109 5.07719,-5.20765 9.91045,-8.43324 16.68336,-11.1324 5.11255,-2.03785 12.79408,-4.4617 26.9402,-5.12393 15.29958,-0.71618 19.88801,-0.86778 58.62844,-0.86778 z m 0,45.58337 c -41.148,0 -74.50474,34.21381 -74.50474,76.41906 0,42.20524 33.35674,76.41905 74.50474,76.41905 41.14799,0 74.50474,-34.21381 74.50474,-76.41905 0,-42.20525 -33.35675,-76.41906 -74.50474,-76.41906 z m 0,126.0242 c -26.70988,0 -48.36252,-22.20898 -48.36252,-49.60514 0,-27.39616 21.65264,-49.60514 48.36252,-49.60514 26.70988,0 48.36252,22.20898 48.36252,49.60514 0,27.39616 -21.65264,49.60514 -48.36252,49.60514 z m 94.85969,-129.04331 c 0,9.8628 -7.79573,17.85703 -17.41147,17.85703 -9.61483,0 -17.40971,-7.99423 -17.40971,-17.85703 0,-9.8628 7.79488,-17.85796 17.40971,-17.85796 9.61574,0 17.41147,7.99516 17.41147,17.85796 z"
     id="path132"
     style="fill:#f9f9f9;stroke-width:0.918379;fill-opacity:0" /><path
     style="fill:#000000;stroke-width:644.201"
     d="m 178.05985,394.67238 c -25.64381,-5.03967 -48.92652,-24.06419 -57.87306,-47.28859 -4.26343,-11.06745 -5.42391,-20.64624 -6.74983,-55.71409 -0.88066,-23.29182 -0.93514,-61.40572 -0.12106,-84.69754 1.34748,-38.55304 2.02403,-43.53467 7.54829,-55.57979 8.53452,-18.60875 19.09228,-29.62285 36.70865,-38.29536 12.77296,-6.28811 19.32714,-7.8039 40.95172,-9.47093 63.94098,-4.929186 133.90225,-1.2651 154.3194,8.08218 23.83375,10.91146 39.62784,33.23962 44.48322,62.88613 1.25093,7.6381 2.262,42.33868 2.2468,77.11238 -0.0359,82.28208 -2.92607,97.1901 -23.19033,119.62018 -10.65896,11.7982 -26.17717,19.89512 -44.68868,23.31716 -16.51948,3.05379 -138.12626,3.07617 -153.63512,0.0283 z m 164.30908,-27.52205 c 12.72973,-5.80829 24.48687,-18.44347 28.97405,-31.13784 2.46852,-6.98352 3.23487,-27.52111 3.23487,-86.69156 v -77.54 l -6.34947,-13.54474 c -7.21423,-15.3894 -18.24777,-24.1258 -35.40283,-28.03207 -5.91675,-1.34727 -40.79805,-2.47088 -77.70343,-2.50302 -73.17638,-0.0637 -84.66743,1.49677 -98.84067,13.42277 -13.82343,11.63165 -17.25474,22.24668 -19.55021,60.48013 -2.32489,38.72345 -0.43401,115.40754 3.20626,130.02862 5.38549,21.63075 20.69571,35.12345 44.77578,39.46035 6.00936,1.08229 41.52459,1.74019 78.92273,1.46195 62.89089,-0.46787 68.80278,-0.87367 78.73292,-5.40459 z"
     id="path1" /><path
     style="fill:#f9f9f9;stroke-width:644.201"
     d="m 243.67998,296.56294 c -5.12479,-1.3974 -13.75637,-6.88365 -19.43399,-12.3523 -15.37001,-14.8043 -19.44998,-34.47615 -10.94736,-52.78356 5.82005,-12.53146 13.04674,-19.82601 25.03542,-25.27049 30.5239,-13.862 64.15716,9.58984 64.15716,44.73556 0,30.2034 -30.02524,53.51998 -58.81123,45.67079 z"
     id="path2" /><path
     style="fill:#000000;stroke-width:644.201"
     d="m 237.38082,322.58448 c -12.82048,-3.62526 -31.27091,-15.84102 -37.69261,-24.95573 -12.34454,-17.52135 -15.7265,-27.58485 -15.83355,-47.1149 -0.08,-14.5902 1.09201,-21.68489 4.97477,-30.11512 15.61269,-33.89813 52.87196,-52.09865 87.15884,-42.57562 21.55374,5.98645 43.9351,28.69125 49.81772,50.53765 7.05171,26.18804 0.85263,52.44429 -16.99181,71.96895 -18.81385,20.58534 -46.65876,29.26031 -71.43336,22.25477 z m 40.61985,-26.84984 c 33.09687,-16.64925 36.42909,-66.07434 5.8997,-87.5072 -38.54983,-27.06352 -89.95062,12.81169 -74.80933,58.03485 9.55448,28.53679 42.63985,42.68726 68.90963,29.47235 z"
     id="path3" /><path
     style="fill:#000000;stroke-width:644.201"
     d=""
     id="path4" /><path
     style="fill:#000000;stroke-width:644.201"
     d="m 323.28216,182.51723 c -6.13479,-6.13479 -6.13479,-17.72367 0,-23.85846 6.09638,-6.09638 12.05321,-6.0447 19.95794,0.17317 8.44694,6.64436 8.44694,16.86777 0,23.51213 -7.90473,6.21786 -13.86156,6.26955 -19.95794,0.17316 z"
     id="path5" /></svg>
