<?xml version="1.0" encoding="UTF-8" standalone="no"?>
<svg
   id="svg140"
   viewBox="0 0 256 256"
   version="1.1"
   sodipodi:docname="xx.svg"
   inkscape:version="1.2 (dc2aeda, 2022-05-15)"
   xmlns:inkscape="http://www.inkscape.org/namespaces/inkscape"
   xmlns:sodipodi="http://sodipodi.sourceforge.net/DTD/sodipodi-0.dtd"
   xmlns="http://www.w3.org/2000/svg"
   xmlns:svg="http://www.w3.org/2000/svg">
  <sodipodi:namedview
     id="namedview141"
     pagecolor="#ffffff"
     bordercolor="#000000"
     borderopacity="0.25"
     inkscape:showpageshadow="2"
     inkscape:pageopacity="0.0"
     inkscape:pagecheckerboard="0"
     inkscape:deskcolor="#d1d1d1"
     showgrid="false"
     inkscape:zoom="0.921875"
     inkscape:cx="128"
     inkscape:cy="128"
     inkscape:window-width="1309"
     inkscape:window-height="456"
     inkscape:window-x="0"
     inkscape:window-y="25"
     inkscape:window-maximized="0"
     inkscape:current-layer="svg140" />
  <defs
     id="defs134">
    <style
       id="style132">
      .cls-1 {
        fill: #4d4d4d;
      }
    </style>
  </defs>
  <g
     id="g416"
     style="fill:#f9f9f9">
    <g
       id="g138"
       style="fill:#f9f9f9">
      <polygon
         id="polygon134"
         class="cls-1"
         points="71.35 66.06 163.8 189.65 184.73 189.65 92.28 66.06 71.35 66.06"
         style="fill:#f9f9f9" />
      <path
         id="path136"
         class="cls-1"
         d="m127.86,1.41h0C58.02,1.41,1.41,58.02,1.41,127.86h0c0,69.84,56.61,126.45,126.45,126.45h0c69.84,0,126.45-56.61,126.45-126.45h0C254.31,58.02,197.69,1.41,127.86,1.41Zm31,198.12l-42.09-56.28-52.09,56.28h-13.39l59.5-64.28L51.66,56.19h45.57l38.76,51.83,47.97-51.83h13.39l-55.38,59.83,62.45,83.5h-45.57Z"
         style="fill:#f9f9f9" />
    </g>
  </g>
</svg>
